<?xml version="1.0" encoding="UTF-8"?>
<svg version="1.1" xmlns="http://www.w3.org/2000/svg" width="512" height="512">
<path d="M0 0 C0.79870516 -0.01188449 1.59741032 -0.02376898 2.42031866 -0.0360136 C5.10017043 -0.07073554 7.77930693 -0.07679157 10.45936584 -0.08276367 C12.37974065 -0.10127927 14.30010075 -0.12137831 16.22044373 -0.14294434 C21.44198195 -0.19544024 26.66331442 -0.22122195 31.88507533 -0.23898697 C35.15032572 -0.25071591 38.41552009 -0.26713665 41.68074226 -0.28500366 C51.90509274 -0.33971645 62.12931494 -0.37837104 72.35380167 -0.39381123 C84.14053624 -0.41170957 95.92540954 -0.48177558 107.71157831 -0.59781361 C116.83029627 -0.68445808 125.94849249 -0.72463789 135.06761748 -0.7299757 C140.50972361 -0.73415761 145.95008111 -0.75755162 151.39175224 -0.82925415 C156.51851419 -0.89548932 161.64222901 -0.90366104 166.76926804 -0.86869812 C168.6425236 -0.86563199 170.51594798 -0.88278792 172.38878441 -0.92253113 C181.03951454 -1.09521807 188.04885129 -1.15677214 194.84349877 4.71622181 C196.94028206 6.74779537 198.90417506 8.85551141 200.80946553 11.0669651 C202.81435749 13.34060704 205.03626491 15.37208574 207.25257874 17.43676758 C213.11430301 23.36510236 218.11669887 29.91690515 223.12757874 36.56176758 C223.83914124 37.48989258 224.55070374 38.41801758 225.28382874 39.37426758 C245.33454282 66.10855302 258.58844261 97.92498151 259.41688538 131.54272461 C260.39560621 169.59293695 273.18597097 202.84933289 294.12757874 234.56176758 C294.58519592 235.25592773 295.04281311 235.95008789 295.51429749 236.6652832 C301.66808937 245.93044606 308.21083924 254.85388545 315.12757874 263.56176758 C316.2529303 264.9790918 316.2529303 264.9790918 317.40101624 266.42504883 C321.23810926 271.18439053 325.19673336 275.79328402 329.31507874 280.31176758 C330.1413678 281.22055664 330.96765686 282.1293457 331.81898499 283.06567383 C333.21716326 284.57740973 334.63635794 286.07054678 336.09242249 287.52661133 C338.97346757 290.51611929 340.49539572 292.51296511 340.69007874 296.74926758 C340.14306804 300.45678454 339.83841819 302.05173105 337.12757874 304.56176758 C334.29130869 305.50719093 332.54307639 305.69075182 329.60421467 305.70043278 C328.6716583 305.70590722 327.73910193 305.71138167 326.77828628 305.717022 C325.75203256 305.71800011 324.72577883 305.71897822 323.66842651 305.71998596 C322.03524421 305.72739293 322.03524421 305.72739293 320.36906832 305.73494953 C316.70239174 305.75036908 313.03573273 305.75869722 309.36903381 305.76708984 C306.74793339 305.77666486 304.12683453 305.78667472 301.5057373 305.79708862 C295.85325669 305.81885744 290.20077371 305.83700045 284.54827309 305.85269356 C276.3756672 305.87538848 268.20308725 305.90353184 260.03050335 305.93301284 C246.7716135 305.98069337 233.51271304 306.02395631 220.25379944 306.06445312 C207.37260615 306.1038057 194.49142228 306.14523136 181.61024475 306.18945312 C180.8164921 306.1921774 180.02273944 306.19490167 179.20493368 306.19770849 C175.22298251 306.21138793 171.24103149 306.22510822 167.25908053 306.23884881 C134.21526603 306.35282083 101.17143196 306.45962859 68.12757874 306.56176758 C68.76203918 307.61920166 68.76203918 307.61920166 69.40931702 308.69799805 C79.26039124 325.11645508 79.26039124 325.11645508 81.23158264 328.40917969 C82.44904387 330.43352644 83.67460944 332.45303357 84.91029358 334.46630859 C85.44606018 335.342146 85.98182678 336.2179834 86.53382874 337.12036133 C87.00369202 337.88147217 87.4735553 338.64258301 87.95765686 339.42675781 C91.79590842 346.43124653 91.96007282 353.96383527 89.94007874 361.56176758 C87.0354209 370.39621078 82.20677338 375.05315334 74.12757874 379.56176758 C70.36663922 380.81541408 66.85585931 380.71321064 62.93762207 380.71566772 C62.09273556 380.72004998 61.24784906 380.72443223 60.37735993 380.72894728 C57.53555238 380.74234201 54.69377584 380.74851572 51.85194397 380.75463867 C49.81849019 380.76253923 47.78503781 380.77080816 45.75158691 380.77941895 C39.06312908 380.8056488 32.37466495 380.82094958 25.68617249 380.83520508 C23.38360655 380.84056475 21.08104066 380.84594225 18.77847481 380.85133743 C9.19892513 380.87296938 -0.38062285 380.89170521 -9.96019077 380.90295982 C-23.68654656 380.91919228 -37.41261896 380.95234967 -51.13886791 381.00936067 C-60.79080952 381.04808112 -70.44267541 381.06759515 -80.09469265 381.07288039 C-85.85861205 381.0765315 -91.62222927 381.08852741 -97.38606453 381.12098312 C-102.81242403 381.15109971 -108.23829906 381.15736254 -113.66472435 381.14559937 C-115.65205315 381.14537892 -117.63940465 381.15365981 -119.62665558 381.1712532 C-140.38254744 381.34494466 -140.38254744 381.34494466 -148.72083378 373.9146328 C-154.22875098 368.35700563 -157.02269689 360.91875983 -157.43492126 353.18676758 C-156.76538733 341.23017308 -149.29118834 330.8249003 -143.12242126 320.93676758 C-141.95206472 319.04174399 -140.78409527 317.14526379 -139.61625671 315.24868774 C-138.57030878 313.55303688 -137.51888467 311.86076753 -136.46714783 310.16870117 C-134.90572848 307.69941959 -134.90572848 307.69941959 -133.87242126 305.56176758 C-134.57326843 305.57747803 -135.2741156 305.59318848 -135.99620056 305.609375 C-139.18402477 305.6718917 -142.37171978 305.71081139 -145.55992126 305.74926758 C-147.21411072 305.78697266 -147.21411072 305.78697266 -148.90171814 305.82543945 C-149.96841736 305.83510742 -151.03511658 305.84477539 -152.13414001 305.85473633 C-153.11342468 305.87044678 -154.09270935 305.88615723 -155.10166931 305.90234375 C-158.36911457 305.50071487 -160.22781781 304.48977637 -162.87242126 302.56176758 C-166.45328073 295.40004864 -162.99943277 284.89281755 -161.37242126 277.56176758 C-161.10614929 276.34497314 -160.83987732 275.12817871 -160.5655365 273.87451172 C-157.70528893 261.21167606 -154.00689491 248.86177496 -149.87242126 236.56176758 C-149.58254333 235.6976123 -149.29266541 234.83345703 -148.9940033 233.94311523 C-134.51688395 191.44140293 -110.96799166 153.42507895 -73.30992126 128.12426758 C-40.94569349 105.93722468 -22.8913909 70.64452263 -15.55992126 32.81176758 C-14.17389545 25.33607513 -13.20805281 17.83471162 -12.73057556 10.24438477 C-12.47625659 7.12561193 -12.14845724 4.95141007 -10.32147884 2.37251282 C-6.97312038 -0.10314321 -4.00896515 -0.01862577 0 0 Z " fill="#545454" transform="translate(167.87242126464844,65.438232421875)"/>
<path d="M0 0 C0.79870516 -0.01188449 1.59741032 -0.02376898 2.42031866 -0.0360136 C5.10017043 -0.07073554 7.77930693 -0.07679157 10.45936584 -0.08276367 C12.37974065 -0.10127927 14.30010075 -0.12137831 16.22044373 -0.14294434 C21.44198195 -0.19544024 26.66331442 -0.22122195 31.88507533 -0.23898697 C35.15032572 -0.25071591 38.41552009 -0.26713665 41.68074226 -0.28500366 C51.90509274 -0.33971645 62.12931494 -0.37837104 72.35380167 -0.39381123 C84.14053624 -0.41170957 95.92540954 -0.48177558 107.71157831 -0.59781361 C116.83029627 -0.68445808 125.94849249 -0.72463789 135.06761748 -0.7299757 C140.50972361 -0.73415761 145.95008111 -0.75755162 151.39175224 -0.82925415 C156.51851419 -0.89548932 161.64222901 -0.90366104 166.76926804 -0.86869812 C168.6425236 -0.86563199 170.51594798 -0.88278792 172.38878441 -0.92253113 C181.03951454 -1.09521807 188.04885129 -1.15677214 194.84349877 4.71622181 C196.94028206 6.74779537 198.90417506 8.85551141 200.80946553 11.0669651 C202.81435749 13.34060704 205.03626491 15.37208574 207.25257874 17.43676758 C213.11430301 23.36510236 218.11669887 29.91690515 223.12757874 36.56176758 C223.83914124 37.48989258 224.55070374 38.41801758 225.28382874 39.37426758 C245.33454282 66.10855302 258.58844261 97.92498151 259.41688538 131.54272461 C260.39560621 169.59293695 273.18597097 202.84933289 294.12757874 234.56176758 C294.58519592 235.25592773 295.04281311 235.95008789 295.51429749 236.6652832 C301.66808937 245.93044606 308.21083924 254.85388545 315.12757874 263.56176758 C316.2529303 264.9790918 316.2529303 264.9790918 317.40101624 266.42504883 C321.23810926 271.18439053 325.19673336 275.79328402 329.31507874 280.31176758 C330.1413678 281.22055664 330.96765686 282.1293457 331.81898499 283.06567383 C333.21716326 284.57740973 334.63635794 286.07054678 336.09242249 287.52661133 C338.97346757 290.51611929 340.49539572 292.51296511 340.69007874 296.74926758 C340.14306804 300.45678454 339.83841819 302.05173105 337.12757874 304.56176758 C334.29130869 305.50719093 332.54307639 305.69075182 329.60421467 305.70043278 C328.6716583 305.70590722 327.73910193 305.71138167 326.77828628 305.717022 C325.75203256 305.71800011 324.72577883 305.71897822 323.66842651 305.71998596 C322.03524421 305.72739293 322.03524421 305.72739293 320.36906832 305.73494953 C316.70239174 305.75036908 313.03573273 305.75869722 309.36903381 305.76708984 C306.74793339 305.77666486 304.12683453 305.78667472 301.5057373 305.79708862 C295.85325669 305.81885744 290.20077371 305.83700045 284.54827309 305.85269356 C276.3756672 305.87538848 268.20308725 305.90353184 260.03050335 305.93301284 C246.7716135 305.98069337 233.51271304 306.02395631 220.25379944 306.06445312 C207.37260615 306.1038057 194.49142228 306.14523136 181.61024475 306.18945312 C180.8164921 306.1921774 180.02273944 306.19490167 179.20493368 306.19770849 C175.22298251 306.21138793 171.24103149 306.22510822 167.25908053 306.23884881 C134.21526603 306.35282083 101.17143196 306.45962859 68.12757874 306.56176758 C68.76203918 307.61920166 68.76203918 307.61920166 69.40931702 308.69799805 C79.26039124 325.11645508 79.26039124 325.11645508 81.23158264 328.40917969 C82.44904387 330.43352644 83.67460944 332.45303357 84.91029358 334.46630859 C85.44606018 335.342146 85.98182678 336.2179834 86.53382874 337.12036133 C87.00369202 337.88147217 87.4735553 338.64258301 87.95765686 339.42675781 C91.79590842 346.43124653 91.96007282 353.96383527 89.94007874 361.56176758 C87.0354209 370.39621078 82.20677338 375.05315334 74.12757874 379.56176758 C70.36663922 380.81541408 66.85585931 380.71321064 62.93762207 380.71566772 C62.09273556 380.72004998 61.24784906 380.72443223 60.37735993 380.72894728 C57.53555238 380.74234201 54.69377584 380.74851572 51.85194397 380.75463867 C49.81849019 380.76253923 47.78503781 380.77080816 45.75158691 380.77941895 C39.06312908 380.8056488 32.37466495 380.82094958 25.68617249 380.83520508 C23.38360655 380.84056475 21.08104066 380.84594225 18.77847481 380.85133743 C9.19892513 380.87296938 -0.38062285 380.89170521 -9.96019077 380.90295982 C-23.68654656 380.91919228 -37.41261896 380.95234967 -51.13886791 381.00936067 C-60.79080952 381.04808112 -70.44267541 381.06759515 -80.09469265 381.07288039 C-85.85861205 381.0765315 -91.62222927 381.08852741 -97.38606453 381.12098312 C-102.81242403 381.15109971 -108.23829906 381.15736254 -113.66472435 381.14559937 C-115.65205315 381.14537892 -117.63940465 381.15365981 -119.62665558 381.1712532 C-140.38254744 381.34494466 -140.38254744 381.34494466 -148.72083378 373.9146328 C-154.22875098 368.35700563 -157.02269689 360.91875983 -157.43492126 353.18676758 C-156.76538733 341.23017308 -149.29118834 330.8249003 -143.12242126 320.93676758 C-141.95206472 319.04174399 -140.78409527 317.14526379 -139.61625671 315.24868774 C-138.57030878 313.55303688 -137.51888467 311.86076753 -136.46714783 310.16870117 C-134.90572848 307.69941959 -134.90572848 307.69941959 -133.87242126 305.56176758 C-134.57326843 305.57747803 -135.2741156 305.59318848 -135.99620056 305.609375 C-139.18402477 305.6718917 -142.37171978 305.71081139 -145.55992126 305.74926758 C-147.21411072 305.78697266 -147.21411072 305.78697266 -148.90171814 305.82543945 C-149.96841736 305.83510742 -151.03511658 305.84477539 -152.13414001 305.85473633 C-153.11342468 305.87044678 -154.09270935 305.88615723 -155.10166931 305.90234375 C-158.36911457 305.50071487 -160.22781781 304.48977637 -162.87242126 302.56176758 C-166.45328073 295.40004864 -162.99943277 284.89281755 -161.37242126 277.56176758 C-161.10614929 276.34497314 -160.83987732 275.12817871 -160.5655365 273.87451172 C-157.70528893 261.21167606 -154.00689491 248.86177496 -149.87242126 236.56176758 C-149.58254333 235.6976123 -149.29266541 234.83345703 -148.9940033 233.94311523 C-134.51688395 191.44140293 -110.96799166 153.42507895 -73.30992126 128.12426758 C-40.94569349 105.93722468 -22.8913909 70.64452263 -15.55992126 32.81176758 C-14.17389545 25.33607513 -13.20805281 17.83471162 -12.73057556 10.24438477 C-12.47625659 7.12561193 -12.14845724 4.95141007 -10.32147884 2.37251282 C-6.97312038 -0.10314321 -4.00896515 -0.01862577 0 0 Z M4.12757874 16.56176758 C2.18194629 27.58285155 2.18194629 27.58285155 0.24085999 38.60473633 C-7.91750302 82.12957751 -31.64530951 119.53357425 -67.82945251 144.72973633 C-83.44885472 155.62991699 -96.33801376 168.70987275 -106.87242126 184.56176758 C-107.25172791 185.12879395 -107.63103455 185.69582031 -108.02183533 186.2800293 C-127.36064637 215.66309506 -142.38128646 253.43568705 -145.87242126 288.56176758 C-137.9235472 290.45387865 -129.61091221 291.76293752 -121.87242126 288.56176758 C-114.78248949 281.71042016 -110.79671248 272.02274716 -106.63902283 263.21459961 C-104.4096445 258.52591855 -101.74962912 254.14630301 -98.99742126 249.74926758 C-98.04237617 248.17178679 -97.09069007 246.59226866 -96.14195251 245.01098633 C-95.63357849 244.16584473 -95.12520447 243.32070313 -94.60142517 242.44995117 C-92.56079111 239.04121056 -90.5337527 235.62457208 -88.50914001 232.20629883 C-88.12000931 231.5493251 -87.7308786 230.89235138 -87.32995605 230.21546936 C-86.93396713 229.546884 -86.53797821 228.87829865 -86.12998962 228.18945312 C-78.95296581 216.07187948 -71.74035957 203.97743933 -64.43492126 191.93676758 C-64.07798187 191.34758545 -63.72104248 190.75840332 -63.35328674 190.15136719 C-62.34171672 188.48251922 -61.32781768 186.81508367 -60.31382751 185.14770508 C-59.45833313 183.74077393 -59.45833313 183.74077393 -58.58555603 182.30541992 C-52.86592143 173.14520136 -52.86592143 173.14520136 -48.93492126 170.31176758 C-48.28652283 169.83223633 -47.63812439 169.35270508 -46.97007751 168.85864258 C-40.52776601 164.87568649 -34.27504932 164.85048303 -26.87242126 165.56176758 C-17.93967828 168.01000084 -12.22636774 173.34883986 -7.68980408 181.19506836 C-7.19319275 182.0792041 -6.69658142 182.96333984 -6.18492126 183.87426758 C-5.04132133 185.85787771 -3.89672876 187.84091578 -2.75132751 189.82348633 C-2.13273865 190.90162598 -1.51414978 191.97976563 -0.8768158 193.09057617 C2.41455756 198.80874222 5.79374785 204.47540515 9.16505432 210.14666748 C10.38457489 212.19853877 11.60233956 214.25144497 12.81996155 216.30444336 C18.52190816 225.90938058 24.30849715 235.46042997 30.13008118 244.99319458 C35.27780858 253.42902652 40.28815476 261.92912824 45.11170959 270.5546875 C45.97647467 272.09443852 46.86148225 273.62300707 47.76698303 275.13916016 C49.12757874 277.56176758 49.12757874 277.56176758 50.40419006 280.56835938 C52.02059171 283.91261086 53.32927402 286.10104582 56.12757874 288.56176758 C61.99564068 289.92662001 67.58920198 289.60619168 73.56507874 289.24926758 C75.17103116 289.19403512 76.77716577 289.14385454 78.38343811 289.09887695 C82.30267687 288.97817019 86.21311734 288.7887803 90.12757874 288.56176758 C88.93964879 282.84140263 87.50722795 277.29984515 85.69007874 271.74926758 C79.24233663 251.49616409 79.24233663 251.49616409 80.12757874 244.56176758 C81.19007874 242.62426758 81.19007874 242.62426758 83.12757874 241.56176758 C86.76538251 241.09877437 89.08681114 240.8487226 92.17445374 242.96411133 C95.06905985 246.81393746 95.82586174 250.92670462 96.94007874 255.56176758 C98.95829406 263.45979167 101.22075202 271.18789979 103.94007874 278.87426758 C104.24212219 279.73342773 104.54416565 280.59258789 104.85536194 281.4777832 C105.9873587 285.30990859 105.9873587 285.30990859 108.12757874 288.56176758 C110.77043127 288.65958278 113.38713626 288.69171025 116.03042603 288.68202209 C117.28740001 288.68330373 117.28740001 288.68330373 118.56976742 288.68461126 C121.39968733 288.68626864 124.22954898 288.6807405 127.0594635 288.67529297 C129.07928974 288.67501113 131.09911608 288.67516877 133.11894226 288.67573547 C138.62078259 288.67602356 144.12260133 288.67012499 149.62443662 288.66316152 C155.36733978 288.65692988 161.11024339 288.65632433 166.85314941 288.65513611 C177.73644766 288.65202223 188.61973592 288.64380808 199.50302976 288.63378662 C211.8897567 288.62262723 224.2764841 288.61711547 236.6632148 288.61209118 C262.15134166 288.60162551 287.63945964 288.58402498 313.12757874 288.56176758 C312.18646682 287.30003436 311.24438018 286.03902816 310.30189514 284.77832031 C309.77737762 284.07601791 309.25286011 283.37371552 308.71244812 282.65013123 C306.84215939 280.18567388 304.90208344 277.78630931 302.94422913 275.39135742 C270.77204941 235.95660098 244.77568855 189.7546359 243.57991028 137.99856567 C242.6818928 100.06212794 226.96578788 64.12410239 201.26478577 36.19775391 C199.05031531 33.74060381 197.25605867 31.24622637 195.49525452 28.44995117 C191.55414258 22.84239342 187.06075531 17.7807627 180.15280914 16.07379913 C168.27703002 14.11546963 155.91333486 14.99923887 143.94398499 15.46313477 C139.22508792 15.62839434 134.50480031 15.70021402 129.78382874 15.78051758 C120.56143951 15.95086193 111.34521299 16.22299129 102.12757874 16.56176758 C102.65531232 19.92309773 103.27466967 23.08956444 104.19007874 26.37426758 C105.28084776 30.67123647 105.93398489 35.16555339 105.12757874 39.56176758 C103.82679749 41.30004883 103.82679749 41.30004883 102.12757874 42.56176758 C95.99821767 43.21848484 95.99821767 43.21848484 93.50697327 41.33935547 C91.83830573 39.18898939 91.2644749 37.3711779 90.55726624 34.74536133 C90.3007428 33.8165918 90.04421936 32.88782227 89.77992249 31.9309082 C89.39513733 30.47974609 89.39513733 30.47974609 89.00257874 28.99926758 C88.48065671 27.08088588 87.95728977 25.16289652 87.43226624 23.24536133 C87.2052301 22.39514404 86.97819397 21.54492676 86.74427795 20.66894531 C86.18654746 18.53138878 86.18654746 18.53138878 85.12757874 16.56176758 C58.39757874 16.56176758 31.66757874 16.56176758 4.12757874 16.56176758 Z " fill="#000000" transform="translate(167.87242126464844,65.438232421875)"/>
<path d="M0 0 C8.6365813 4.36530159 12.61531055 13.9357557 17.12255859 22.09448242 C20.57154975 28.31264932 24.20347801 34.4110229 27.875 40.5 C29.17986104 42.66526001 30.48454221 44.83062842 31.7890625 46.99609375 C32.12707886 47.55714813 32.46509521 48.11820251 32.81335449 48.69625854 C36.98913037 55.63369077 41.1190385 62.59832523 45.25 69.5625 C46.05499529 70.91895583 46.86000841 72.27540109 47.66503906 73.63183594 C51.32369059 79.79750112 54.97964564 85.96475497 58.63186646 92.13423157 C66.29660789 105.08036935 73.97870258 118.01351912 81.80343628 130.86376953 C82.86107102 132.60210622 83.91641255 134.34181253 84.97094727 136.08203125 C88.26962483 141.52282465 91.5871399 146.9496935 94.94921875 152.3515625 C96.15411874 154.31741856 97.35857096 156.28354916 98.5625 158.25 C99.39467041 159.56218506 99.39467041 159.56218506 100.24365234 160.90087891 C103.48741507 166.2484205 104.78880786 169.7303375 104 176 C101.98497111 179.75212276 100.54533858 181.63644095 97 184 C94.32799919 184.19991798 91.75957964 184.28258849 89.08683777 184.27415466 C87.86427724 184.28200968 87.86427724 184.28200968 86.61701852 184.29002339 C83.87638441 184.30506706 81.13593629 184.30572949 78.39526367 184.30639648 C76.43413476 184.31401507 74.47300884 184.32244205 72.5118866 184.33161926 C67.17711505 184.35360167 61.84240083 184.36236827 56.5075891 184.36744571 C53.17591846 184.37108507 49.84426293 184.37732294 46.51259804 184.3844471 C34.8930762 184.40895524 23.27359909 184.4219963 11.65405273 184.42553711 C0.81754001 184.42917275 -10.01868955 184.45906679 -20.85511571 184.50094169 C-30.15371672 184.53561624 -39.45222376 184.55108507 -48.750889 184.55178314 C-54.30675461 184.55257697 -59.86233197 184.561364 -65.41813087 184.58978081 C-70.64423331 184.6159125 -75.86980754 184.61819391 -81.09594536 184.60212517 C-83.0139951 184.60030674 -84.93207487 184.60703681 -86.85005951 184.62294388 C-89.46929633 184.64334222 -92.08667425 184.63289027 -94.70588684 184.61473083 C-95.46455309 184.6279308 -96.22321934 184.64113077 -97.00487548 184.65473074 C-102.76790171 184.56349888 -105.10944676 182.95548668 -109 179 C-110.81927531 175.36144939 -110.69548045 171.89869629 -110 168 C-107.93276053 163.31115621 -105.26102258 159.02931768 -102.5625 154.6875 C-101.7874239 153.40758325 -101.0141809 152.12655484 -100.24267578 150.84448242 C-98.24255445 147.53099957 -96.21992115 144.23191841 -94.19036865 140.93640137 C-92.32015543 137.89408046 -90.46653309 134.84173515 -88.61328125 131.7890625 C-87.9040886 130.62123473 -87.19486028 129.45342862 -86.4855957 128.28564453 C-85.96335922 127.42570892 -85.96335922 127.42570892 -85.43057251 126.54840088 C-84.37002236 124.80431421 -83.30672124 123.06192939 -82.24291992 121.31982422 C-76.85450404 112.48374825 -71.65861137 103.54438787 -66.51416016 94.56420898 C-61.74593072 86.25409996 -56.85511486 78.02467558 -51.90795898 69.82006836 C-47.12312377 61.88287112 -42.38611952 53.9185548 -37.66378784 45.94406128 C-35.25608128 41.88164441 -32.84109817 37.82354995 -30.42601013 33.76551819 C-28.57429575 30.65296828 -26.72611532 27.5384798 -24.88867188 24.41748047 C-22.99817281 21.20982283 -21.0945358 18.01034462 -19.1875 14.8125 C-18.64343506 13.88099121 -18.09937012 12.94948242 -17.53881836 11.98974609 C-13.21662158 4.79172764 -9.31207842 -1.35448413 0 0 Z " fill="#FDDD3F" transform="translate(138,246)"/>
<path d="M0 0 C5.4250515 2.77170813 9.52157112 7.20375682 12.26098633 12.62402344 C13.45226055 16.32183907 13.47215474 19.7721832 13.421875 23.61328125 C13.41266022 24.88924919 13.41266022 24.88924919 13.40325928 26.19099426 C13.22465284 39.47000996 12.44817936 52.73774484 11.69824219 65.99438477 C11.47643846 69.93140087 11.2762455 73.86922052 11.08063126 77.80761242 C10.9241553 80.88054571 10.75204216 83.95246332 10.575737 87.02431679 C10.4950395 88.47630307 10.42004057 89.92861914 10.35120392 91.38121605 C9.45807957 109.94363761 9.45807957 109.94363761 2.3125 116.4375 C-2.97582788 119.9277964 -7.47681292 121.1554159 -13.8125 120.5 C-19.70397624 118.52118355 -23.29845443 115.5643598 -26.8125 110.5 C-28.49105444 106.91627133 -29.12635467 103.8719109 -29.375 99.93359375 C-29.4486377 98.82669189 -29.52227539 97.71979004 -29.59814453 96.5793457 C-29.66888184 95.37753662 -29.73961914 94.17572754 -29.8125 92.9375 C-29.89226074 91.67188232 -29.97202148 90.40626465 -30.05419922 89.10229492 C-30.22633528 86.35399049 -30.39213704 83.60539037 -30.55371094 80.85644531 C-30.72688157 77.91520112 -30.9074646 74.97456034 -31.09472656 72.03417969 C-32.07516887 56.62127757 -32.98847856 41.19429384 -33.25 25.75 C-33.28432129 24.71593018 -33.31864258 23.68186035 -33.35400391 22.61645508 C-33.39992922 14.78750092 -31.21494342 10.16416983 -25.93359375 4.4765625 C-25.37800781 4.03054688 -24.82242188 3.58453125 -24.25 3.125 C-23.69183594 2.66351563 -23.13367188 2.20203125 -22.55859375 1.7265625 C-15.88019621 -2.96475031 -7.53660342 -2.92658483 0 0 Z " fill="#030301" transform="translate(144.8125,265.5)"/>
<path d="M0 0 C4.94754234 2.84458286 7.84443678 7.09581034 9.625 12.4375 C10.45852329 18.4745901 9.63103702 22.6457634 6.12890625 27.64453125 C2.9135074 31.47795482 -0.75173022 35.1141953 -5.87890625 35.74609375 C-12.61501845 36.0299912 -17.12717422 35.46031204 -22.52734375 31.265625 C-26.90263331 26.93658586 -28.56267955 22.54707338 -28.9375 16.4375 C-28.6391909 10.17300899 -26.18495579 6.05037745 -21.6484375 1.83203125 C-15.15398226 -2.93858711 -7.32113529 -3.17709645 0 0 Z " fill="#040301" transform="translate(144.375,390.5625)"/>
<path d="M0 0 C4.19651852 0.96170216 5.62003437 2.08149148 8 5.6875 C8.39209939 11.31412631 6.78156925 16.86429819 5.50195312 22.30517578 C3.44867669 32.05024942 3.71278581 42.20469895 3.52319336 52.11767578 C3.48347735 54.10728128 3.4313607 56.09662708 3.37890625 58.0859375 C3.3538501 59.25817871 3.32879395 60.43041992 3.30297852 61.63818359 C3.00994128 64.58744638 2.6515805 66.25742121 1 68.6875 C-2.7205836 71.16788907 -4.59796571 71.15087203 -9 70.6875 C-11.19384766 69.10888672 -11.19384766 69.10888672 -13 66.6875 C-13.48583984 63.42626953 -13.48583984 63.42626953 -13.4609375 59.5703125 C-13.46002106 58.87670624 -13.45910461 58.18309998 -13.4581604 57.46847534 C-13.45212518 55.99746883 -13.43638113 54.52647456 -13.41162109 53.05566406 C-13.37568293 50.8543316 -13.37059834 48.65471689 -13.37109375 46.453125 C-13.32564748 37.38560334 -12.5523074 28.63913935 -11 19.6875 C-10.87979492 18.95805176 -10.75958984 18.22860352 -10.63574219 17.47705078 C-7.90886172 1.81244748 -7.90886172 1.81244748 0 0 Z " fill="#010101" transform="translate(254,209.3125)"/>
<path d="M0 0 C3.50350682 3.31536494 4.81895654 4.87800699 5.59375 9.6796875 C5.59274029 11.07847375 5.55954262 12.47748124 5.5 13.875 C5.47558838 15.0206543 5.47558838 15.0206543 5.45068359 16.18945312 C4.10237185 55.89762815 4.10237185 55.89762815 -4 64 C-6.92807534 64.28800741 -9.14997212 64.48146102 -12 64 C-14.5 61.9375 -14.5 61.9375 -16 59 C-16.29513964 53.86959392 -15.60646745 49.12633243 -14.5625 44.125 C-12.99540347 36.49196521 -12.00845875 29.03146012 -11.82421875 21.23046875 C-11.80037109 20.23982422 -11.77652344 19.24917969 -11.75195312 18.22851562 C-11.7085751 16.18186173 -11.67755116 14.13491273 -11.65820312 12.08789062 C-11.4488416 4.65312207 -11.4488416 4.65312207 -9.171875 1.33984375 C-5.86385034 -0.70089808 -3.80063937 -0.66677884 0 0 Z " fill="#010101" transform="translate(274,126)"/>
<path d="M0 0 C2.56039479 2.01059599 3.85518542 3.16809224 4.42138672 6.42071533 C4.38287598 7.3353656 4.34436523 8.25001587 4.3046875 9.19238281 C4.26827148 10.25831665 4.23185547 11.32425049 4.19433594 12.42248535 C4.13020508 13.60306519 4.06607422 14.78364502 4 16 C3.94360352 17.27113647 3.88720703 18.54227295 3.82910156 19.85192871 C3.62778624 24.21057115 3.37710756 28.56592592 3.125 32.921875 C3.03502625 34.51896547 2.94535056 36.11607275 2.85595703 37.7131958 C2.62218131 41.87578215 2.38441185 46.03813067 2.14575195 50.20043945 C1.90200255 54.46421677 1.66211096 58.72821104 1.421875 62.9921875 C0.95164885 71.32833959 0.47719475 79.66424393 0 88 C-1.98 88.99 -1.98 88.99 -4 90 C-6.3224438 87.6775562 -6.2883349 87.14236399 -6.48657227 83.99121094 C-6.54325577 83.16143738 -6.59993927 82.33166382 -6.65834045 81.47674561 C-6.71050217 80.57176331 -6.76266388 79.66678101 -6.81640625 78.734375 C-6.87779282 77.79055969 -6.93917938 76.84674438 -7.00242615 75.87432861 C-7.19779088 72.83336488 -7.38007126 69.79176423 -7.5625 66.75 C-7.68864837 64.77729212 -7.81559328 62.80463501 -7.94335938 60.83203125 C-9.0055964 44.17194955 -9.84522955 27.50031857 -10.3125 10.8125 C-10.34278793 10.06756287 -10.37307587 9.32262573 -10.40428162 8.55511475 C-10.45620263 3.48830217 -10.45620263 3.48830217 -8.16796875 1.0390625 C-5.19581275 -0.38543028 -3.25666306 -0.47493003 0 0 Z " fill="#383838" transform="translate(138,280)"/>
<path d="M0 0 C1.65 0.33 3.3 0.66 5 1 C4.67 2.32 4.34 3.64 4 5 C2.35 4.67 0.7 4.34 -1 4 C-0.67 2.68 -0.34 1.36 0 0 Z " fill="#333333" transform="translate(133,405)"/>
</svg>
