<?xml version="1.0" encoding="UTF-8"?>
<svg version="1.1" xmlns="http://www.w3.org/2000/svg" width="512" height="512">
<path d="M0 0 C6.44279257 4.55076327 9.22291576 10.44698888 11 18 C11.67215622 24.01691712 11.46781425 30.09354192 11.390625 36.13671875 C11.38314976 37.86976972 11.37746291 39.60282923 11.37347412 41.33589172 C11.35831858 45.86188759 11.3191259 50.38735687 11.2746582 54.91314697 C11.2334859 59.54554118 11.21541656 64.17802181 11.1953125 68.81054688 C11.15262006 77.87392725 11.08449353 86.93691956 11 96 C11.93408691 96.14171631 12.86817383 96.28343262 13.83056641 96.42944336 C22.61123417 98.01012589 30.72274276 103.93403031 36 111 C40.10030056 117.80517948 44.08097385 124.96669236 44.16113281 133.05908203 C44.17074036 133.84735382 44.1803479 134.63562561 44.19024658 135.44778442 C44.1966214 136.71499832 44.1966214 136.71499832 44.203125 138.0078125 C44.20882507 138.88847382 44.21452515 139.76913513 44.22039795 140.67648315 C44.22983575 142.54082036 44.23637708 144.40517415 44.24023438 146.26953125 C44.24989417 149.09405479 44.28090991 151.91783601 44.3125 154.7421875 C44.40357312 170.00396056 42.47243616 181.9894306 31.875 193.75 C26.15487331 199.13815505 18.67115212 202.58778496 11 204 C11.00888245 204.95276321 11.01776489 205.90552643 11.0269165 206.88716125 C11.10831304 215.9046634 11.16811364 224.92209015 11.20724869 233.93987751 C11.22804547 238.5750654 11.25621693 243.20995464 11.30175781 247.8449707 C11.34549987 252.32539456 11.36919646 256.80553274 11.37950897 261.28615379 C11.3868498 262.98804401 11.40118362 264.68992016 11.42292023 266.39168739 C11.55240258 276.95756294 11.60561564 286.87092068 4.95703125 295.71875 C-2.28841647 301.73682679 -8.91934399 304.7308285 -18.4609375 304.33203125 C-24.0762199 303.59772509 -29.10139727 302.19106917 -32.90820312 297.79785156 C-33.86629883 296.54439941 -33.86629883 296.54439941 -34.84375 295.265625 C-40.63202482 288.68623254 -47.48260504 286.16760913 -55.4375 283.125 C-57.00533986 282.50110913 -58.57212282 281.87455692 -60.13793945 281.24560547 C-63.56072963 279.87628599 -66.98957928 278.52391158 -70.42382812 277.18359375 C-76.31118435 274.88386974 -82.17996427 272.53881262 -88.046875 270.1875 C-90.13890193 269.34933007 -92.23094307 268.51119563 -94.32299805 267.6730957 C-95.37095551 267.25323395 -96.41891296 266.83337219 -97.49862671 266.40078735 C-100.68768353 265.12492657 -103.87837699 263.8532457 -107.06958008 262.58276367 C-122.85899478 256.29236335 -138.57932064 249.84678281 -154.26049805 243.29150391 C-155.4670681 242.78770454 -155.4670681 242.78770454 -156.69801331 242.27372742 C-158.17229735 241.65770799 -159.64602018 241.04034255 -161.1190033 240.42121887 C-165.70767768 238.50223476 -170.33430121 236.72368577 -175 235 C-176.66671638 243.51800144 -177.84967665 252.06598493 -178.92358398 260.67602539 C-179.10592122 262.11956766 -179.28854674 263.56307353 -179.47143555 265.00654602 C-179.86202149 268.09296006 -180.2508958 271.17958305 -180.63848686 274.26637459 C-181.25275299 279.15585683 -181.87279156 284.04459661 -182.49391174 288.93321228 C-184.25845003 302.82704286 -186.01791815 316.72150388 -187.76586914 330.61743164 C-188.73342661 338.30896458 -189.70709137 345.99969918 -190.68744904 353.68961138 C-191.30555601 358.54066659 -191.9162743 363.39257472 -192.52144039 368.24526036 C-192.9007227 371.27179009 -193.28718953 374.29737091 -193.67563629 377.32273674 C-193.85313308 378.7162557 -194.02776182 380.11014374 -194.19916725 381.50442505 C-195.88208967 395.16848337 -197.74527542 406.46590635 -209 415.375 C-216.49119883 420.9621858 -225.02701168 420.74932989 -234 420 C-241.61762009 418.15631514 -248.36965486 413.11848086 -252.57421875 406.53515625 C-256.14708467 399.72725988 -257.12617413 393.7740229 -257.12025452 386.09036255 C-257.12110894 385.41961697 -257.12196337 384.74887138 -257.12284368 384.05780017 C-257.12448287 381.82382476 -257.11900283 379.58992545 -257.11352539 377.35595703 C-257.11324316 375.74918113 -257.11340196 374.1424051 -257.1139679 372.53562927 C-257.11425445 368.18280627 -257.10838058 363.8300109 -257.10139394 359.47719431 C-257.09513686 354.92481025 -257.09455474 350.37242554 -257.09336853 345.82003784 C-257.09026216 337.20352671 -257.08205812 328.5870283 -257.07201904 319.97052276 C-257.06083635 310.15920565 -257.05534202 300.34788792 -257.05032361 290.53656602 C-257.03987494 270.35770359 -257.02228893 250.1788526 -257 230 C-257.58491211 230.02618408 -258.16982422 230.05236816 -258.77246094 230.0793457 C-261.43136566 230.18349756 -264.08984144 230.24837772 -266.75 230.3125 C-268.13058594 230.3753418 -268.13058594 230.3753418 -269.5390625 230.43945312 C-276.35516906 230.56293332 -276.35516906 230.56293332 -279.61621094 227.71606445 C-281.42420047 224.16739057 -281.44304814 221.06702502 -281.25 217.1875 C-281.23195313 216.49462891 -281.21390625 215.80175781 -281.1953125 215.08789062 C-281.14851064 213.39132336 -281.07677624 211.69547524 -281 210 C-281.87398438 209.87044922 -281.87398438 209.87044922 -282.765625 209.73828125 C-297.19504559 207.26531451 -308.94534175 200.69121407 -318.33984375 189.38671875 C-329.32477554 173.59426387 -332.74516487 155.58458011 -329.78515625 136.66796875 C-326.59819879 121.7796451 -318.87575661 107.92438107 -306.28125 99.09375 C-298.82205846 94.46119946 -289.96573933 90 -281 90 C-281.04640625 88.97519531 -281.0928125 87.95039063 -281.140625 86.89453125 C-281.17816011 85.53388344 -281.21455841 84.17320395 -281.25 82.8125 C-281.28351563 82.13896484 -281.31703125 81.46542969 -281.3515625 80.77148438 C-281.4168581 77.42508486 -281.12765739 75.22982084 -279.49510193 72.29074097 C-276.05287516 69.13044928 -273.11777173 69.39758258 -268.68774414 69.57861328 C-267.43002449 69.59902931 -267.43002449 69.59902931 -266.14689636 69.61985779 C-264.32104909 69.65118365 -262.49536174 69.69322331 -260.66996956 69.74463272 C-257.73966466 69.82150592 -254.81142103 69.85791753 -251.88023376 69.8822937 C-243.54467395 69.95459899 -235.21120182 70.06185761 -226.87817383 70.28417969 C-198.87949031 70.99583387 -177.26443042 68.28936813 -152.01705933 55.92669678 C-146.09999808 53.04673955 -139.99271504 50.66920127 -133.875 48.25 C-131.72312354 47.37577935 -129.57230818 46.49894187 -127.42260742 45.61938477 C-107.24293323 37.38921809 -87.05926227 29.16922458 -66.85427856 21.00135803 C-65.54027283 20.46890053 -64.22699579 19.93464054 -62.91452026 19.39842224 C-59.42106628 17.97165408 -55.91811152 16.57812463 -52.39697266 15.22094727 C-50.86489582 14.61868549 -49.33283171 14.01639137 -47.80078125 13.4140625 C-47.09414841 13.14892349 -46.38751556 12.88378448 -45.6594696 12.61061096 C-39.96922837 10.3489545 -36.76956019 7.03544655 -32.95703125 2.24609375 C-24.73976164 -7.1849043 -9.97386517 -5.80800468 0 0 Z " fill="#60276D" transform="translate(334,80)"/>
<path d="M0 0 C0 79.86 0 159.72 0 242 C-5.49625091 240.16791636 -10.70578399 238.3824354 -16.015625 236.171875 C-16.9754126 235.77418915 -16.9754126 235.77418915 -17.95458984 235.36846924 C-19.33228013 234.79738774 -20.70942361 234.22498558 -22.08605957 233.65136719 C-25.88777796 232.06780039 -29.69414688 230.49547247 -33.5 228.921875 C-34.29077942 228.59465454 -35.08155884 228.26743408 -35.89630127 227.93029785 C-43.99837769 224.58068854 -52.12297918 221.28881238 -60.25 218 C-84.84804231 208.03623603 -109.42205526 198.01323675 -134 188 C-134 143.78 -134 99.56 -134 54 C-119.74866175 48.06194239 -105.50328542 42.14435778 -91.18286133 36.38037109 C-86.18037279 34.36650083 -81.1800247 32.34732982 -76.1796875 30.328125 C-75.1298468 29.90422485 -74.0800061 29.48032471 -72.99835205 29.0435791 C-59.82219871 23.72038639 -46.66074119 18.36114994 -33.5 13 C-32.31944031 12.5193811 -31.13888062 12.03876221 -29.92254639 11.5435791 C-26.56265212 10.17560998 -23.20313298 8.80672416 -19.84375 7.4375 C-18.84787872 7.0320697 -17.85200745 6.6266394 -16.82595825 6.20892334 C-12.8474907 4.58609054 -8.87912244 2.95564756 -4.94726562 1.22265625 C-2 0 -2 0 0 0 Z " fill="#FE4874" transform="translate(293,109)"/>
<path d="M0 0 C24.09 0 48.18 0 73 0 C73 42.24 73 84.48 73 128 C48.91 128 24.82 128 0 128 C0 85.76 0 43.52 0 0 Z " fill="#FED20F" transform="translate(70,166)"/>
<path d="M0 0 C0 79.86 0 159.72 0 242 C-9 239 -9 239 -22 233 C-22 217.16 -22 201.32 -22 185 C-22.66 185.33 -23.32 185.66 -24 186 C-28.05263598 186.54035146 -29.53730231 186.34199395 -32.875 183.875 C-35 181 -35 181 -35.5625 178 C-34.84909176 174.19515606 -33.9236459 172.5488195 -31 170 C-27.55602925 169.64372716 -25.12860495 169.43569752 -22 171 C-22.33 165.72 -22.66 160.44 -23 155 C-24.98 155.33 -26.96 155.66 -29 156 C-31.74716387 154.22960551 -33.53145922 152.93708156 -35 150 C-35.11412056 147.21958774 -35.16785013 144.46365207 -35.17700195 141.68237305 C-35.18357315 140.82204468 -35.19014435 139.96171631 -35.19691467 139.07531738 C-35.21666758 136.22078367 -35.22831451 133.36630262 -35.23828125 130.51171875 C-35.24235678 129.5378956 -35.2464323 128.56407246 -35.25063133 127.56073952 C-35.27150028 122.40678748 -35.28579859 117.25286213 -35.29516602 112.09887695 C-35.306234 106.77223288 -35.3406361 101.44600616 -35.38033772 96.1195097 C-35.4064681 92.02656776 -35.41485466 87.9337258 -35.41844749 83.84070778 C-35.42332248 81.87709547 -35.43496232 79.91348789 -35.45348549 77.94995689 C-35.47780153 75.20157059 -35.4769258 72.45427122 -35.4699707 69.70581055 C-35.48278076 68.89471329 -35.49559082 68.08361603 -35.50878906 67.24794006 C-35.47430784 63.50951557 -35.1290339 61.21620105 -33.19718933 57.97932434 C-31 56 -31 56 -27.375 55.625 C-24 56 -24 56 -22 57 C-22 41.16 -22 25.32 -22 9 C-17.18932362 6.59466181 -12.5605433 4.30541906 -7.625 2.25 C-6.60664063 1.82203125 -5.58828125 1.3940625 -4.5390625 0.953125 C-2 0 -2 0 0 0 Z " fill="#FB256C" transform="translate(293,109)"/>
<path d="M0 0 C15.84 0 31.68 0 48 0 C45.9811462 18.84263547 43.85797837 37.61758403 41.17861938 56.37487793 C39.62955941 67.23489116 38.24024261 78.10048588 37 89 C35.46570567 102.48170053 33.68303311 115.91735819 31.75 129.34765625 C31.54920058 130.75256438 31.34867654 132.15751189 31.1484375 133.5625 C31.00084991 134.58911743 31.00084991 134.58911743 30.85028076 135.63647461 C30.32888424 139.34616466 29.87970101 143.05293816 29.51269531 146.78125 C29.39252548 147.97899048 29.39252548 147.97899048 29.26992798 149.20092773 C29.12139116 150.72034256 28.98195393 152.24068897 28.85385132 153.76196289 C28.09611302 161.51573049 26.15339837 167.7932783 20 173 C16.5259169 174.73704155 12.79843331 174.46041616 9 174 C4.49091316 171.74545658 2.19331713 169.49574466 0 165 C-0.36914349 161.80789471 -0.36914349 161.80789471 -0.36076355 158.13468933 C-0.36332682 157.45663107 -0.3658901 156.7785728 -0.36853105 156.07996732 C-0.37346018 153.81503011 -0.3569912 151.55076415 -0.34057617 149.28588867 C-0.33972971 147.65955623 -0.34020542 146.03322264 -0.34190369 144.40689087 C-0.34276431 139.99607003 -0.32512766 135.58549401 -0.30418181 131.17473006 C-0.28542626 126.56362763 -0.28366546 121.95251958 -0.28010559 117.34138489 C-0.27078183 108.61146134 -0.24616356 99.88165052 -0.21605712 91.15177661 C-0.18252342 81.21232516 -0.16602969 71.27286832 -0.15097082 61.33337438 C-0.11961429 40.88883936 -0.06459806 20.44445887 0 0 Z " fill="#72D6F8" transform="translate(94,310)"/>
<path d="M0 0 C0.7321875 -0.01289062 1.464375 -0.02578125 2.21875 -0.0390625 C5.84109555 1.0153874 7.2005269 2.63439213 9.5 5.625 C10.24635555 9.13559941 10.17464144 12.59232111 10.13491821 16.1703949 C10.14271817 17.2444079 10.15051812 18.3184209 10.15855443 19.42497975 C10.17852671 23.03033031 10.16268824 26.63463149 10.14697266 30.23999023 C10.15374643 32.82209897 10.1626482 35.40420288 10.17352295 37.98629761 C10.19576067 44.27563907 10.19095176 50.56468226 10.17645974 56.85403543 C10.16516851 61.96592282 10.16363608 67.0777266 10.16907883 72.18962288 C10.16984499 72.9171331 10.17061116 73.64464332 10.17140054 74.3941993 C10.17299917 75.87212827 10.17462023 77.35005721 10.1762635 78.82798613 C10.19052281 92.68819554 10.17412601 106.54823964 10.14726166 120.40842194 C10.12492737 132.29946374 10.12879886 144.19026145 10.15185547 156.08129883 C10.17861845 169.89029127 10.18914454 183.69913875 10.17379415 197.5081535 C10.17220141 198.98095609 10.17062956 200.45375871 10.16907883 201.92656136 C10.16830745 202.65120314 10.16753607 203.37584493 10.16674132 204.12244556 C10.16242544 209.22730521 10.16970851 214.33207286 10.18147659 219.43691826 C10.19697156 226.30953064 10.18592545 233.18167428 10.15700531 240.05424118 C10.15038652 242.57859467 10.15230556 245.10298691 10.16331863 247.62732506 C10.1769533 251.06961709 10.1598807 254.5104244 10.13491821 257.95262146 C10.14607182 258.95505321 10.15722543 259.95748497 10.16871703 260.99029344 C10.10531434 265.48821539 9.97295758 268.64787348 7.10289574 272.24441624 C4.43644158 274.68312993 3.53654816 275.43080003 0 275.3125 C-0.7321875 275.31636719 -1.464375 275.32023437 -2.21875 275.32421875 C-5.82265922 274.21959589 -7.19976885 272.61716572 -9.5 269.625 C-10.24689184 266.09964629 -10.17462233 262.62754392 -10.13491821 259.03491211 C-10.14271817 257.95610999 -10.15051812 256.87730787 -10.15855443 255.76581478 C-10.17852713 252.14431227 -10.16268811 248.5238544 -10.14697266 244.90234375 C-10.15374637 242.30876043 -10.16264811 239.71518192 -10.17352295 237.12161255 C-10.19576029 230.80453303 -10.19095215 224.48775048 -10.17645974 218.1706593 C-10.16516937 213.0368336 -10.1636357 207.90309115 -10.16907883 202.76925659 C-10.16984499 202.03868229 -10.17061116 201.30810799 -10.17140054 200.55539507 C-10.17299916 199.07126337 -10.17462023 197.58713169 -10.1762635 196.10300004 C-10.19052244 182.18511714 -10.17412606 168.26739888 -10.14726166 154.34954298 C-10.12492269 142.4064488 -10.12880278 130.46359761 -10.15185547 118.52050781 C-10.17861099 104.65256149 -10.18914913 90.78475949 -10.17379415 76.91679096 C-10.1722014 75.43810847 -10.17062955 73.95942595 -10.16907883 72.48074341 C-10.16830745 71.7531968 -10.16753607 71.02565019 -10.16674132 70.27605671 C-10.16242355 65.14818511 -10.16971248 60.02040503 -10.18147659 54.89254761 C-10.19696126 47.99121178 -10.18594244 41.09034304 -10.15700531 34.18905258 C-10.15038183 31.65299112 -10.15231353 29.11689111 -10.16331863 26.58084488 C-10.1769347 23.12506632 -10.15990349 19.67077131 -10.13491821 16.21508789 C-10.14607182 15.20585235 -10.15722543 14.1966168 -10.16871703 13.15679836 C-10.10257727 8.45713278 -10.04029303 6.32831431 -7.10289574 2.50462341 C-4.42992011 0.57439336 -3.24730761 -0.05717091 0 0 Z " fill="#FEE1E1" transform="translate(318.5,92.375)"/>
<path d="M0 0 C0 49.5 0 99 0 150 C-10 147 -10 147 -22 142 C-22 97.78 -22 53.56 -22 8 C-3 0 -3 0 0 0 Z " fill="#FE73A4" transform="translate(181,155)"/>
<path d="M0 0 C5.09600762 1.59086344 8.62742356 5.99498257 12.27734375 9.7109375 C12.89609375 10.27167969 13.51484375 10.83242187 14.15234375 11.41015625 C32.42172606 28.19938027 41.21335872 54.53455033 42.27734375 78.7109375 C42.79511767 105.92024782 33.14177462 131.68057618 14.4140625 151.51953125 C13.70894531 152.24269531 13.00382812 152.96585938 12.27734375 153.7109375 C11.62378906 154.40316406 10.97023438 155.09539062 10.296875 155.80859375 C6.5963629 159.65112977 3.81422699 162.38708006 -1.66015625 163.0859375 C-5.66129634 162.59600198 -7.14036654 161.8248751 -9.72265625 158.7109375 C-11.01168315 155.38841896 -10.95344494 153.05458012 -9.72265625 149.7109375 C-7.48181325 147.24895867 -5.16991485 145.14722047 -2.63623047 143.00292969 C13.5347045 129.29330267 22.0345566 108.53268806 24.0234375 87.75 C25.70706288 65.15369017 18.12932605 43.97782611 3.8828125 26.6328125 C0.56908403 22.91666723 -2.98094205 19.62011683 -6.7890625 16.41796875 C-9.7202457 13.83023732 -9.70952479 12.87376762 -10.03515625 8.8359375 C-9.97606252 5.88125097 -9.78830589 4.82035357 -8.22265625 2.2109375 C-5.4608323 0.55384313 -3.24477796 -0.15710284 0 0 Z " fill="#5E256C" transform="translate(466.72265625,148.2890625)"/>
<path d="M0 0 C2.61935425 1.89109802 2.61935425 1.89109802 5.09326172 4.39624023 C5.55109543 4.85159149 6.00892914 5.30694275 6.4806366 5.77609253 C7.97845105 7.27299447 9.45384088 8.7900549 10.9296875 10.30859375 C11.9697935 11.35736138 13.01116541 12.40487494 14.05374146 13.45118713 C16.78608903 16.20071722 19.49952352 18.96821622 22.20977783 21.73950195 C24.4296802 24.00309774 26.66265401 26.25354513 28.89643669 28.50343227 C31.55765784 31.18423649 34.21334911 33.87048266 36.8671875 36.55859375 C37.3743417 37.07217375 37.8814959 37.58575375 38.4040184 38.11489677 C39.83333049 39.56515169 41.25832664 41.01965644 42.68310547 42.47436523 C43.49472137 43.30185776 44.30633728 44.12935028 45.14254761 44.98191833 C47.59448085 47.64589052 47.96061903 48.65213478 48.375 52.3125 C48 56 48 56 46.06640625 58.6171875 C42.00157894 61.77584312 38.5792664 62.20616257 33.5625 62.8125 C32.31243164 62.99329102 32.31243164 62.99329102 31.03710938 63.17773438 C26.66316645 63.78282529 22.42503372 64.13670836 18 64 C24.14663467 71.39067909 30.98293335 78.0646896 37.8125 84.8125 C40.07190737 87.04527762 42.32794419 89.28138417 44.58203125 91.51953125 C45.09659378 92.02579544 45.61115631 92.53205963 46.14131165 93.05366516 C49.83102675 96.71787039 52.28586425 99.17284942 52.3125 104.5 C52.32925781 105.2734375 52.34601563 106.046875 52.36328125 106.84375 C51.9080745 109.54562231 51.16929933 110.3655964 49 112 C44.19284683 113.4665891 44.19284683 113.4665891 41 113 C39.16915894 111.79093933 39.16915894 111.79093933 37.33544922 110.08666992 C36.64022156 109.44498871 35.9449939 108.8033075 35.22869873 108.1421814 C31.22330348 104.29227424 27.25138325 100.41420094 23.3203125 96.48828125 C21.97935013 95.15231148 21.97935013 95.15231148 20.61129761 93.78935242 C18.73596242 91.91905134 16.86177512 90.04767516 14.98925781 88.17456055 C12.59364637 85.77884671 10.19117873 83.3901347 7.78697395 81.0030489 C5.48109603 78.71095591 3.18240005 76.41168249 0.8828125 74.11328125 C0.02140656 73.25906082 -0.83999939 72.40484039 -1.72750854 71.5247345 C-2.52238678 70.72677963 -3.31726501 69.92882477 -4.13623047 69.10668945 C-4.8360202 68.40832474 -5.53580994 67.70996002 -6.25680542 66.99043274 C-9.16466475 63.67015027 -10.04743239 61.90121547 -9.8125 57.4375 C-8.77213803 53.0359686 -8.77213803 53.0359686 -6 51 C-2.84765625 50.12109375 -2.84765625 50.12109375 0.9375 49.4375 C2.77634766 49.09525391 2.77634766 49.09525391 4.65234375 48.74609375 C10.09600222 47.79827238 15.54842017 46.90092316 21 46 C20.5887941 45.59101471 20.1775882 45.18202942 19.75392151 44.76065063 C15.48488161 40.51368848 11.21932953 36.2632466 6.95581055 32.01074219 C5.3629583 30.42292701 3.76921082 28.83600939 2.17456055 27.25 C-0.11383743 24.97369489 -2.39902479 22.6942097 -4.68359375 20.4140625 C-5.40026718 19.70255035 -6.11694061 18.99103821 -6.85533142 18.25796509 C-7.5159407 17.59743134 -8.17654999 16.93689758 -8.85717773 16.25634766 C-9.44119858 15.67454742 -10.02521942 15.09274719 -10.62693787 14.49331665 C-12.82689523 12.10068424 -13.00277937 10.96247845 -13.25 7.625 C-12.99015512 3.85724926 -12.67186361 2.5729057 -10 0 C-6.17102374 -1.27632542 -3.92226004 -0.90446871 0 0 Z " fill="#5E256C" transform="translate(406,341)"/>
<path d="M0 0 C2.75171298 1.90503206 3.71801879 3.2856476 4.9375 6.375 C5.03800438 10.59618383 3.20851973 13.58534415 0.4894104 16.76824951 C-1.40141985 18.74778231 -3.33526446 20.6725193 -5.29296875 22.5859375 C-5.99899734 23.28772125 -6.70502594 23.989505 -7.43244934 24.71255493 C-9.6771583 26.9405435 -11.93209821 29.15784167 -14.1875 31.375 C-15.71618326 32.88862792 -17.24418585 34.4029436 -18.77148438 35.91796875 C-22.5064771 39.61998032 -26.24991334 43.31328254 -30 47 C-28.94872925 47.15819214 -28.94872925 47.15819214 -27.8762207 47.31958008 C-24.68648993 47.80602392 -21.499594 48.30908194 -18.3125 48.8125 C-17.20970703 48.97814453 -16.10691406 49.14378906 -14.97070312 49.31445312 C-13.3706543 49.5706543 -13.3706543 49.5706543 -11.73828125 49.83203125 C-10.75899658 49.98389893 -9.77971191 50.1357666 -8.77075195 50.29223633 C-5.72042128 51.07141587 -3.5676904 52.19177934 -1 54 C0.65718763 57.31437525 0.76796885 60.44709188 0 64 C-1.98708039 67.07200984 -4.5328616 69.44260233 -7.19140625 71.9375 C-7.92947006 72.66187256 -8.66753387 73.38624512 -9.42796326 74.13256836 C-11.78796441 76.44130942 -14.17384085 78.72095657 -16.5625 81 C-18.91997611 83.28477861 -21.27181299 85.57521434 -23.62205505 87.86743164 C-25.08357998 89.28894633 -26.55028164 90.70516584 -28.02308655 92.11499023 C-32.07618867 96.01377448 -35.88395674 100.0292631 -39.54063416 104.30322266 C-43.38804492 108.77653512 -46.76300697 112.5829335 -52.6875 113.6875 C-56.66327353 112.86233946 -58.4032679 112.14755406 -61 109 C-61.67569621 105.62151897 -61.89402595 104.18261427 -61 101 C-55.6678785 93.03280512 -47.42747517 86.34969026 -40.625 79.625 C-38.26015669 77.28672085 -35.89863758 74.94515631 -33.5390625 72.6015625 C-32.72666611 71.80161362 -32.72666611 71.80161362 -31.89785767 70.98550415 C-29.09786206 68.25985389 -29.09786206 68.25985389 -27 65 C-28.19882812 64.92652344 -28.19882812 64.92652344 -29.421875 64.8515625 C-49.26672409 63.50062207 -49.26672409 63.50062207 -55.1875 60.25 C-57.49384689 57.38694869 -58 55.67362976 -58 52 C-56.00496504 48.03583963 -53.43337357 45.2472954 -50.25 42.1875 C-47.37722519 39.41861484 -44.64736554 36.61658283 -42.06640625 33.578125 C-36.88575131 27.59508144 -31.22132592 22.07233973 -25.61889648 16.48852539 C-23.67118197 14.54622735 -21.7289407 12.5985686 -19.78710938 10.65039062 C-18.54980017 9.41374125 -17.31218132 8.17740158 -16.07421875 6.94140625 C-15.49403488 6.35919815 -14.91385101 5.77699005 -14.31608582 5.17713928 C-9.67254358 0.56081201 -6.64696545 -0.94768616 0 0 Z " fill="#5E256C" transform="translate(454,12)"/>
<path d="M0 0 C7.26 0 14.52 0 22 0 C22 42.24 22 84.48 22 128 C14.74 128 7.48 128 0 128 C0 85.76 0 43.52 0 0 Z " fill="#FEC200" transform="translate(121,166)"/>
<path d="M0 0 C7.26 0 14.52 0 22 0 C22 42.24 22 84.48 22 128 C14.74 128 7.48 128 0 128 C0 85.76 0 43.52 0 0 Z " fill="#FEE174" transform="translate(70,166)"/>
<path d="M0 0 C8.58 0 17.16 0 26 0 C24.00735059 18.83554642 21.85711504 37.62362793 19.17861938 56.37487793 C17.62955941 67.23489116 16.24024261 78.10048588 15 89 C13.46570567 102.48170053 11.68303311 115.91735819 9.75 129.34765625 C9.54920058 130.75256438 9.34867654 132.15751189 9.1484375 133.5625 C9.00084991 134.58911743 9.00084991 134.58911743 8.85028076 135.63647461 C8.32888424 139.34616466 7.87970101 143.05293816 7.51269531 146.78125 C7.43258209 147.57974365 7.35246887 148.3782373 7.26992798 149.20092773 C7.12139116 150.72034256 6.98195393 152.24068897 6.85385132 153.76196289 C6.34852053 158.93290054 4.98566127 163.19495647 3 168 C2.34 168 1.68 168 1 168 C-0.43685843 165.12628313 -0.12267749 162.67035198 -0.12025452 159.45748901 C-0.12110894 158.77791047 -0.12196337 158.09833193 -0.12284368 157.3981601 C-0.12449697 155.11030297 -0.11897959 152.8225184 -0.11352539 150.53466797 C-0.11324346 148.8989258 -0.11340137 147.2631835 -0.1139679 145.62744141 C-0.11425564 141.17727753 -0.10836258 136.72714042 -0.10139394 132.27698278 C-0.09515662 127.62981647 -0.0945563 122.98264959 -0.09336853 118.33547974 C-0.09025633 109.53113093 -0.08204444 100.72679449 -0.07201904 91.92245114 C-0.06085445 81.9008317 -0.05534658 71.87921168 -0.05032361 61.85758758 C-0.03986174 41.23838462 -0.0220638 20.61919352 0 0 Z " fill="#5FCBFD" transform="translate(116,310)"/>
<path d="M0 0 C10.02910204 2.16313966 17.93578774 12.94896643 23.42578125 20.94921875 C34.24935923 38.31897274 38.48495706 60.09724575 34.00952148 80.19506836 C29.67362422 97.15015106 20.73492372 115.46370755 5.5625 125.375 C1.50749078 126.95194803 -0.66628463 126.96325858 -4.8125 125.6875 C-7.76714088 123.3047251 -7.80961459 121.71214088 -8.25390625 117.91796875 C-8.20218282 114.53602255 -7.62512973 112.96298613 -5.25 110.5546875 C-4.11775188 109.54189598 -2.97103905 108.54510864 -1.8125 107.5625 C10.25349786 96.38353908 16.88257406 82.3613836 17.65576172 65.70141602 C17.92289948 48.75049735 11.8680928 34.23908871 0.37890625 21.89453125 C-1.47926696 20.02310903 -3.39447948 18.29955228 -5.375 16.5625 C-7.77856084 13.7275308 -8.25395554 13.1019967 -8.5 9.625 C-7.8125 5.6875 -7.8125 5.6875 -5.6875 2.6875 C-2.8125 0.6875 -2.8125 0.6875 0 0 Z " fill="#5E256C" transform="translate(429.8125,166.3125)"/>
<path d="M0 0 C0 28.38 0 56.76 0 86 C-11.54057467 84.35134648 -19.27895801 79.13768096 -26.640625 69.953125 C-33.78078656 59.19986964 -34.89841491 46.60311616 -34 34 C-31.74440473 23.0184733 -25.86204148 12.97170386 -17 6 C-11.61484376 2.78721745 -6.36464733 0 0 0 Z " fill="#FA4874" transform="translate(54,187)"/>
<path d="M0 0 C9.97775145 4.77617172 16.24101802 15.97859448 20.03125 25.90234375 C24.69618943 40.81886379 23.75746634 55.97856443 16.49609375 69.87890625 C12.50804557 76.53182189 7.11989633 84.44005184 0 88 C-4.33327174 88.49055907 -6.32000344 88.47744439 -9.9375 85.9375 C-12 83 -12 83 -12.625 79.5 C-11.83019601 75.04909765 -10.37976177 73.93892328 -7 71 C0.99243296 62.72139297 4.31521601 54.5728494 5 43 C4.6279722 33.81091324 1.11986549 25.14674879 -5.39453125 18.58984375 C-6.21308594 17.83832031 -7.03164063 17.08679688 -7.875 16.3125 C-10.83636824 13.5259174 -12.62084331 11.84261696 -12.8125 7.6875 C-12 4 -12 4 -10.5 1.5 C-6.94235688 -0.63458587 -3.96213933 -0.91823302 0 0 Z " fill="#5E256C" transform="translate(399,186)"/>
<path d="M0 0 C4.54696439 0.79771305 5.75825382 1.99127999 8.5625 5.625 C9.05182387 8.69903171 9.23809711 11.21458232 9.19360352 14.28320312 C9.20075882 15.14396957 9.20791412 16.00473602 9.21528625 16.8915863 C9.23216325 19.73035122 9.2127769 22.56753465 9.19140625 25.40625 C9.19223504 27.382529 9.19469481 29.35880793 9.19871521 31.33508301 C9.20157253 35.47441386 9.1868783 39.61320342 9.15942383 43.75244141 C9.12534133 49.05557706 9.13135997 54.35774484 9.1500864 59.66092682 C9.16066014 63.74106905 9.15171514 67.82098646 9.13670158 71.90110779 C9.13152207 73.85631136 9.13199878 75.81153844 9.13824654 77.76673889 C9.14370322 80.50060423 9.12330945 83.2330889 9.09594727 85.96679688 C9.10247314 86.773181 9.10899902 87.57956512 9.11572266 88.41038513 C9.05219503 92.14735336 8.70391304 94.39758194 6.7127533 97.59973145 C3.93682933 100.21430319 2.3671457 100.70264583 -1.4375 100.625 C-4.18466387 98.85460551 -5.96895922 97.56208156 -7.4375 94.625 C-7.55162056 91.84458774 -7.60535013 89.08865207 -7.61450195 86.30737305 C-7.62107315 85.44704468 -7.62764435 84.58671631 -7.63441467 83.70031738 C-7.65416758 80.84578367 -7.66581451 77.99130262 -7.67578125 75.13671875 C-7.67985678 74.1628956 -7.6839323 73.18907246 -7.68813133 72.18573952 C-7.70900028 67.03178748 -7.72329859 61.87786213 -7.73266602 56.72387695 C-7.743734 51.39723288 -7.7781361 46.07100616 -7.81783772 40.7445097 C-7.8439681 36.65156776 -7.85235466 32.5587258 -7.85594749 28.46570778 C-7.86082248 26.50209547 -7.87246232 24.53848789 -7.89098549 22.57495689 C-7.91530153 19.82657059 -7.9144258 17.07927122 -7.9074707 14.33081055 C-7.92028076 13.51971329 -7.93309082 12.70861603 -7.94628906 11.87294006 C-7.91177671 8.13114087 -7.57371237 5.85058194 -5.62297058 2.61994934 C-3.4375 0.625 -3.4375 0.625 0 0 Z " fill="#5F266D" transform="translate(265.4375,164.375)"/>
<path d="M0 0 C6.0033764 1.5008441 10.06139586 4.29193548 13.69335938 9.36547852 C18.32645454 17.75888508 18.87671486 24.95701364 18.67236328 34.30957031 C18.62490466 36.62966062 18.63131345 38.94516705 18.64453125 41.265625 C18.60739152 50.9267336 17.6387492 59.42213311 11.6875 67.375 C8.53889677 70.4503799 4.63683124 74 0 74 C0 49.58 0 25.16 0 0 Z " fill="#5FC6F9" transform="translate(344,193)"/>
<path d="M0 0 C4.47395674 0.78490469 5.93038535 1.95599171 8.5625 5.625 C9.1875 8.625 9.1875 8.625 8.5625 11.625 C6.10655875 14.94774404 4.6368356 16.40118008 0.5625 17.25 C-3.5118356 16.40118008 -4.98155875 14.94774404 -7.4375 11.625 C-8.15338388 7.80695263 -7.72805839 6.15962745 -5.875 2.75 C-3.4375 0.625 -3.4375 0.625 0 0 Z " fill="#63266D" transform="translate(265.4375,278.375)"/>
</svg>
