<?xml version="1.0" encoding="UTF-8"?>
<svg version="1.1" xmlns="http://www.w3.org/2000/svg" width="512" height="512">
<path d="M0 0 C19.66235569 17.20456122 31.33054963 39.41370318 33.53919864 65.48018551 C33.88723923 72.08180972 33.84761567 78.68339716 33.81420898 85.29199219 C33.81800331 87.46600187 33.82351243 89.64000912 33.83058167 91.81401062 C33.84440505 97.65472864 33.83346116 103.49514775 33.81687045 109.33584881 C33.80289745 115.482222 33.80949358 121.62857998 33.81300354 127.77496338 C33.81569524 138.08684032 33.80231713 148.39860016 33.77905273 158.71044922 C33.75242142 170.59621776 33.75070886 182.48179104 33.7624411 194.36757922 C33.77325421 205.85468948 33.76700593 217.3417298 33.75288582 228.82883453 C33.74715947 233.69444705 33.74718205 238.56000782 33.75195122 243.42562103 C33.75675605 249.1616013 33.74647534 254.89737018 33.72499657 260.63331032 C33.71947705 262.72614899 33.71891834 264.81900817 33.72394943 266.91184807 C33.77945706 293.33309069 28.51665954 317.50994427 10.3125 337.8046875 C9.50039063 338.71089844 8.68828125 339.61710937 7.8515625 340.55078125 C-9.62935817 359.03134401 -32.94797412 368.03025903 -58.171875 368.80078125 C-80.80845102 369.06658221 -102.89143532 361.06636454 -119.6875 345.8046875 C-120.59113281 344.99386719 -121.49476563 344.18304688 -122.42578125 343.34765625 C-138.51078461 328.15255625 -149.76103104 306.0538614 -150.78265059 283.72504866 C-150.82448933 281.36006685 -150.83519412 278.99689992 -150.83467102 276.63154602 C-150.83834771 275.72904419 -150.8420244 274.82654235 -150.8458125 273.89669198 C-150.85679358 270.88335194 -150.86068376 267.87004645 -150.86450195 264.85668945 C-150.87077109 262.6910898 -150.87741828 260.52549122 -150.88441467 258.3598938 C-150.90541359 251.25425967 -150.91581696 244.14862544 -150.92578125 237.04296875 C-150.92983113 234.58955563 -150.93394812 232.13614262 -150.93813133 229.68272972 C-150.95717819 218.1475617 -150.97140719 206.61240003 -150.9797433 195.07721931 C-150.98949748 181.8016451 -151.01577166 168.52623843 -151.05624419 155.25072318 C-151.0865128 144.96585211 -151.10122255 134.68102876 -151.10452431 124.39611405 C-151.10686359 118.26534116 -151.11567631 112.13474734 -151.14098549 106.0040226 C-151.16445815 100.22469852 -151.16842307 94.44566895 -151.15822411 88.66630936 C-151.15773318 86.56063157 -151.16392045 84.45493833 -151.17778015 82.34930611 C-151.37007686 51.36700424 -143.75913973 26.19854095 -121.6875 3.8046875 C-121.04167969 3.14597656 -120.39585937 2.48726562 -119.73046875 1.80859375 C-110.3211677 -7.06771857 -97.9308615 -13.37861668 -85.6875 -17.1953125 C-84.69492188 -17.51371094 -83.70234375 -17.83210938 -82.6796875 -18.16015625 C-53.98210311 -25.81049508 -22.79277061 -18.6185132 0 0 Z " fill="#000000" transform="translate(314.6875,20.1953125)"/>
<path d="M0 0 C1.22783203 -0.02835938 2.45566406 -0.05671875 3.72070312 -0.0859375 C12.51553865 -0.10508793 12.51553865 -0.10508793 15.48876953 1.61328125 C16.84765625 2.96875 16.84765625 2.96875 18.5625 5.5 C19.0575 5.995 19.0575 5.995 19.5625 6.5 C19.69884749 9.59706329 19.77341824 12.67470109 19.80859375 15.7734375 C19.84161652 17.73437805 19.87482632 19.69531545 19.90820312 21.65625 C19.95499047 24.73597222 19.99922819 27.81569083 20.03930664 30.89550781 C20.18082109 41.26419558 20.39830109 51.58100941 21.4609375 61.90234375 C21.53569809 62.64040253 21.61045868 63.3784613 21.68748474 64.1388855 C24.33393921 87.36185902 34.79666264 107.71816182 49.5625 125.5 C50.22378906 126.34691406 50.22378906 126.34691406 50.8984375 127.2109375 C68.02548396 148.93584878 97.86880136 161.39284587 124.55322266 164.75048828 C156.14318601 168.20979835 186.26735413 158.88313126 211 139.25 C212.52304753 138.00269881 214.04393285 136.7527521 215.5625 135.5 C216.39394531 134.86449219 217.22539062 134.22898437 218.08203125 133.57421875 C239.44740777 115.7080535 251.39917197 85.51257543 254.125 58.4765625 C254.59093521 52.53681674 254.65651948 46.61444609 254.703125 40.66015625 C254.71277283 39.68369644 254.72242065 38.70723663 254.73236084 37.70118713 C254.79229441 31.57275169 254.79229441 31.57275169 254.81298828 25.4440918 C254.81631511 22.43212484 254.85076382 19.42183232 254.890625 16.41015625 C254.8835553 15.48928726 254.8764856 14.56841827 254.86920166 13.61964417 C254.9568204 9.01957955 255.05340467 7.12764697 258.04199219 3.44311523 C258.87375977 2.80188721 259.70552734 2.16065918 260.5625 1.5 C260.8925 1.17 261.2225 0.84 261.5625 0.5 C265.95019885 0.1610656 270.35090399 0.17480963 274.75 0.125 C275.98298828 0.08761719 277.21597656 0.05023438 278.48632812 0.01171875 C288.69317172 -0.0874303 288.69317172 -0.0874303 292.36328125 2.8359375 C295.25839899 6.34298954 295.68768304 8.78734412 295.72363281 13.18896484 C295.73324036 14.14201508 295.7428479 15.09506531 295.75274658 16.07699585 C295.7591214 17.62829697 295.7591214 17.62829697 295.765625 19.2109375 C295.77132507 20.2888858 295.77702515 21.36683411 295.78289795 22.47744751 C295.79236078 24.77238992 295.798887 27.06734599 295.80273438 29.36230469 C295.81228896 32.79908895 295.84323441 36.23523511 295.875 39.671875 C295.95976688 57.09087772 294.98614818 74.41799808 289.875 91.1875 C289.62153809 92.04287354 289.36807617 92.89824707 289.10693359 93.77954102 C283.43891745 112.17934268 274.36390448 129.31073986 262.5625 144.5 C261.86382812 145.40363281 261.16515625 146.30726563 260.4453125 147.23828125 C234.83104419 179.46121309 198.8475888 198.78581853 158.5625 205.5 C158.2325 213.75 157.9025 222 157.5625 230.5 C160.04539551 230.48428955 162.52829102 230.4685791 165.08642578 230.45239258 C173.29664316 230.40264809 181.50686726 230.36953157 189.71719551 230.34456348 C194.69435737 230.32891817 199.67136462 230.30770051 204.6484375 230.27368164 C209.45301709 230.24104789 214.25744809 230.22313845 219.06212997 230.21536827 C220.89372979 230.20983199 222.72532162 230.19902093 224.55685806 230.18280983 C227.12548546 230.16098211 229.69350157 230.1580353 232.26220703 230.15942383 C233.01674667 230.148638 233.77128632 230.13785217 234.5486908 230.1267395 C239.29762995 230.15445527 242.53346408 230.9802072 246.5625 233.5 C249.39822927 237.06542999 249.94555074 239.78245555 249.9609375 244.28125 C249.96480469 245.37050781 249.96867187 246.45976562 249.97265625 247.58203125 C249.95525391 249.27392578 249.95525391 249.27392578 249.9375 251 C249.94910156 252.12792969 249.96070313 253.25585938 249.97265625 254.41796875 C249.96878906 255.50722656 249.96492188 256.59648437 249.9609375 257.71875 C249.95755371 258.70810547 249.95416992 259.69746094 249.95068359 260.71679688 C249.49413418 263.99017006 248.51050615 265.84773671 246.5625 268.5 C242.73377899 271.05248067 239.62520767 270.78734295 235.18704224 270.77415466 C234.32229369 270.77939134 233.45754514 270.78462802 232.5665921 270.79002339 C229.65779246 270.80507136 226.74916798 270.80572959 223.84033203 270.80639648 C221.75935568 270.81401472 219.67838216 270.82244163 217.59741211 270.83161926 C211.93627216 270.85360366 206.27518624 270.8623684 200.61400843 270.86744571 C197.0793242 270.87108447 193.54465424 270.877322 190.00997543 270.8844471 C177.68486659 270.90895479 165.35979993 270.92199645 153.03466797 270.92553711 C141.53581111 270.92917393 130.03722091 270.95907656 118.53844559 271.00094169 C108.67426036 271.03559989 98.8101637 271.05108477 88.94591796 271.05178314 C83.0508306 271.05257745 77.15601474 271.06138676 71.26099014 271.08978081 C65.7172599 271.11588488 60.17402773 271.11820939 54.63026428 271.10212517 C52.5940785 271.1003046 50.55786457 271.10705587 48.52173996 271.12294388 C45.74454014 271.14329559 42.96910094 271.13291723 40.19192505 271.11473083 C38.97951934 271.13453079 38.97951934 271.13453079 37.74262059 271.15473074 C33.64914048 271.09338411 31.80873931 270.69963425 28.58566093 268.08657932 C24.48266209 262.84096005 25.30442083 257.71519466 25.25 251.25 C25.22099609 250.11691406 25.19199219 248.98382813 25.16210938 247.81640625 C25.09064466 238.43803675 25.09064466 238.43803675 27.26953125 234.828125 C30.72351595 231.32118313 33.40470525 230.57421103 38.31477356 230.25949097 C39.79293381 230.25372853 41.27116258 230.25893009 42.74926758 230.27294922 C43.96468231 230.27251114 43.96468231 230.27251114 45.20465088 230.27206421 C47.87222145 230.2734531 50.53950971 230.28899348 53.20703125 230.3046875 C55.06076403 230.3084192 56.91449879 230.31126543 58.76823425 230.31326294 C63.63936846 230.32088705 68.51038278 230.34052506 73.38146973 230.3626709 C78.35520811 230.38315565 83.32896593 230.39227028 88.30273438 230.40234375 C98.05605064 230.4237721 107.80924658 230.45894431 117.5625 230.5 C117.2325 222.25 116.9025 214 116.5625 205.5 C113.63375 204.96375 110.705 204.4275 107.6875 203.875 C91.56372889 200.72328305 76.9290902 195.45254691 62.5625 187.5 C61.91120117 187.1400293 61.25990234 186.78005859 60.58886719 186.40917969 C51.88393568 181.5328659 44.05079114 176.13685278 36.5625 169.5 C35.57507813 168.63375 34.58765625 167.7675 33.5703125 166.875 C10.60107347 146.4518018 -5.90671372 120.79026355 -14.6875 91.3125 C-14.92170654 90.5491333 -15.15591309 89.7857666 -15.3972168 88.99926758 C-20.2400305 71.80719212 -20.92894823 54.14987395 -20.82861328 36.40087891 C-20.81225295 32.94785662 -20.8287078 29.49596 -20.84765625 26.04296875 C-20.84567811 23.8307266 -20.84184337 21.61848515 -20.8359375 19.40625 C-20.84201019 18.38237183 -20.84808289 17.35849365 -20.8543396 16.30358887 C-20.79174487 9.99611983 -20.26016802 6.28868757 -15.63256836 1.71679688 C-10.97253556 -0.86640894 -5.19481544 -0.0108735 0 0 Z " fill="#000000" transform="translate(118.4375,241.5)"/>
</svg>
