<?xml version="1.0" encoding="UTF-8"?>
<svg version="1.1" xmlns="http://www.w3.org/2000/svg" width="512" height="512">
<path d="M0 0 C4.19611667 -0.01185609 8.39212956 -0.03016347 12.5881958 -0.05383301 C17.6211178 -0.08141544 22.65385628 -0.09338419 27.6868515 -0.0940361 C29.56603154 -0.0966225 31.44521249 -0.10429304 33.32434845 -0.1174202 C56.93324614 -0.27280191 56.93324614 -0.27280191 66.24588013 7.39422607 C72.97082934 14.48105596 75.05425478 25.42872503 77.98806763 34.23016357 C88.54806763 34.23016357 99.10806763 34.23016357 109.98806763 34.23016357 C112.03830232 28.01393092 112.03830232 28.01393092 114.05496216 21.7868042 C116.42840016 14.80426608 119.44795849 8.73751907 125.58572388 4.39031982 C126.39912231 4.02809326 127.21252075 3.6658667 128.05056763 3.29266357 C128.86654419 2.91239014 129.68252075 2.5321167 130.52322388 2.14031982 C135.7331877 0.21651385 140.75085428 0.08624448 146.25515747 0.10076904 C147.49024237 0.09819155 147.49024237 0.09819155 148.75027847 0.09556198 C151.48320732 0.09123732 154.21607546 0.09418196 156.94900513 0.09735107 C158.87856062 0.09616698 160.80811592 0.09464478 162.7376709 0.09280396 C168.94615086 0.08905485 175.15459437 0.09662061 181.36306763 0.10516357 C183.47687782 0.10743125 185.59068804 0.10966923 187.70449829 0.11187744 C201.79912044 0.1284305 215.89356797 0.16983368 229.98806763 0.23016357 C231.17283943 0.23495979 231.17283943 0.23495979 232.38154602 0.23985291 C240.21178455 0.27202927 248.04119548 0.32250201 255.87069702 0.43969727 C257.76315492 0.46640493 259.65571307 0.48684019 261.54830933 0.50061035 C264.08628302 0.52138935 266.62248782 0.56685439 269.15994263 0.62078857 C269.85461639 0.62202728 270.54929016 0.62326599 271.26501465 0.62454224 C277.71663185 0.82109274 283.84352657 3.62642866 288.61306763 7.98016357 C291.66269145 11.36545812 293.11799957 14.67425011 294.67556763 18.94110107 C294.92609894 19.62608673 295.17663025 20.31107239 295.43475342 21.01681519 C298.88709595 30.56264444 302.0782123 40.2020386 305.27664185 49.83514404 C306.37774301 53.14933483 307.48537338 56.46129694 308.59353638 59.77313232 C309.29574492 61.88107682 309.99758211 63.98914506 310.69900513 66.09735107 C311.03016327 67.08677704 311.36132141 68.076203 311.70251465 69.09561157 C312.00348053 70.00481354 312.30444641 70.9140155 312.61453247 71.85076904 C312.88067352 72.65078339 313.14681458 73.45079773 313.42102051 74.27505493 C313.98806763 76.23016357 313.98806763 76.23016357 313.98806763 78.23016357 C314.593927 78.3049292 315.19978638 78.37969482 315.82400513 78.45672607 C322.9541453 79.57560961 328.06829513 82.17755947 333.98806763 86.23016357 C334.87494263 86.80766357 335.76181763 87.38516357 336.67556763 87.98016357 C345.49163918 96.55796293 350.22673751 106.96489885 350.50564575 119.25262451 C350.54651428 122.3238273 350.53717858 125.39318742 350.51931763 128.46453857 C350.52201832 130.1135684 350.52590552 131.76259666 350.53091431 133.41162109 C350.53677568 136.84754782 350.52835167 140.2830555 350.509552 143.71893311 C350.48669171 148.10923218 350.49995091 152.4985567 350.52384186 156.88882065 C350.53832994 160.28618656 350.53368139 163.6833231 350.52333069 167.08069611 C350.52067544 168.69932422 350.52389059 170.31797361 350.5332489 171.93657684 C350.54347313 174.2000364 350.52783774 176.46193664 350.50564575 178.72528076 C350.50246338 180.00892517 350.49928101 181.29256958 350.4960022 182.6151123 C349.710543 188.20535055 347.54753352 191.91328127 343.17556763 195.60516357 C339.69418694 197.3799851 336.83936025 197.76527381 332.98806763 198.23016357 C333.00901489 199.13782471 333.02996216 200.04548584 333.05154419 200.98065186 C333.11997696 204.36893999 333.16999058 207.75648708 333.20779419 211.14520264 C333.22783095 212.60788609 333.25506866 214.07049023 333.28982544 215.53289795 C333.33869988 217.64312367 333.36111422 219.75228493 333.37869263 221.86297607 C333.39963989 223.13028564 333.42058716 224.39759521 333.44216919 225.70330811 C332.75639272 231.02950534 330.32225999 234.05480364 326.36306763 237.54266357 C323.17535143 239.80761982 321.51569662 240.36024413 317.66531372 240.42303467 C316.77033173 240.4390976 315.87534973 240.45516052 314.95324707 240.47171021 C310.84327975 240.51626559 306.73347431 240.5572578 302.62332153 240.58026123 C300.46045136 240.59678158 298.2976349 240.62401936 296.13504028 240.66229248 C293.01024151 240.71729812 289.88672409 240.73897544 286.76150513 240.75360107 C285.80287567 240.77627045 284.84424622 240.79893982 283.85656738 240.82229614 C277.36192685 240.80204221 272.98685296 239.47658445 267.98806763 235.23016357 C264.21576266 230.24098604 263.86253241 225.84791027 263.89041138 219.71453857 C263.89363403 218.46414795 263.89685669 217.21375732 263.900177 215.92547607 C263.90855591 214.62352295 263.91693481 213.32156982 263.92556763 211.98016357 C263.93007935 210.6627417 263.93459106 209.34531982 263.9392395 207.98797607 C263.95102437 204.73535253 263.96895973 201.48275234 263.98806763 198.23016357 C256.06806763 198.23016357 248.14806763 198.23016357 239.98806763 198.23016357 C240.06659307 203.83888864 240.06659307 203.83888864 240.16824341 209.44720459 C240.21308023 215.85091487 239.45680585 221.04803822 235.80056763 226.48016357 C231.57188442 230.61487604 228.03106391 232.23016357 221.98806763 232.23016357 C222.00901489 233.13782471 222.02996216 234.04548584 222.05154419 234.98065186 C222.11997696 238.36893999 222.16999058 241.75648708 222.20779419 245.14520264 C222.22783095 246.60788609 222.25506866 248.07049023 222.28982544 249.53289795 C222.33869988 251.64312367 222.36111422 253.75228493 222.37869263 255.86297607 C222.39963989 257.13028564 222.42058716 258.39759521 222.44216919 259.70330811 C221.75639272 265.02950534 219.32225999 268.05480364 215.36306763 271.54266357 C212.1645511 273.81529374 210.51329886 274.35911711 206.64944458 274.40716553 C205.75123489 274.42000076 204.85302521 274.432836 203.92759705 274.44606018 C202.95368515 274.45344711 201.97977325 274.46083405 200.97634888 274.46844482 C199.97476242 274.47651657 198.97317596 274.48458832 197.9412384 274.49290466 C195.81697321 274.50675325 193.69268569 274.51747192 191.56838989 274.52532959 C188.33089482 274.54250271 185.09443136 274.58637772 181.85720825 274.6305542 C179.79276263 274.64068459 177.72830833 274.64919961 175.66384888 274.65594482 C174.70005814 274.67345291 173.7362674 274.690961 172.74327087 274.70899963 C166.60855384 274.68936275 162.98874574 273.8548464 157.98806763 270.23016357 C148.95019371 258.81390178 152.98806763 248.18536559 152.98806763 232.23016357 C114.04806763 232.23016357 75.10806763 232.23016357 34.98806763 232.23016357 C34.98806763 241.47016357 34.98806763 250.71016357 34.98806763 260.23016357 C32.1019864 266.96435309 29.81922994 271.39821827 22.98806763 274.23016357 C20.80108643 274.49758911 20.80108643 274.49758911 18.40652466 274.52069092 C17.50523834 274.53345062 16.60395203 274.54621033 15.675354 274.55935669 C14.70862762 274.56158234 13.74190125 274.56380798 12.74588013 274.56610107 C11.74475189 274.57275787 10.74362366 274.57941467 9.7121582 274.58627319 C7.59565059 274.59639174 5.47911112 274.60109046 3.36257935 274.60076904 C0.13173585 274.60513833 -3.09773711 274.64145637 -6.32833862 274.67938232 C-8.38692771 274.68525147 -10.44552328 274.68922021 -12.50411987 274.69110107 C-13.94813675 274.71265762 -13.94813675 274.71265762 -15.42132568 274.73464966 C-21.13767096 274.69589413 -24.50408645 274.09921367 -29.01193237 270.23016357 C-33.38206368 265.26947398 -34.13637604 262.84330584 -34.10958862 256.25360107 C-34.10817368 255.56835358 -34.10675873 254.88310608 -34.1053009 254.17709351 C-34.09969912 251.98640597 -34.08714643 249.79582027 -34.07443237 247.60516357 C-34.0694176 246.12079005 -34.06485465 244.63641492 -34.0607605 243.15203857 C-34.04972914 239.51138042 -34.03246336 235.87078193 -34.01193237 232.23016357 C-35.10119019 232.09996826 -36.190448 231.96977295 -37.31271362 231.83563232 C-42.88538744 230.92352626 -45.8611322 228.69199082 -49.32443237 224.29266357 C-52.42654923 218.66289594 -52.13822653 213.18360434 -52.07443237 206.91766357 C-52.05380737 204.05078857 -52.03318237 201.18391357 -52.01193237 198.23016357 C-59.93193237 198.23016357 -67.85193237 198.23016357 -76.01193237 198.23016357 C-75.95972534 201.14022217 -75.95972534 201.14022217 -75.90646362 204.10906982 C-75.87831869 206.67025906 -75.85101929 209.23145769 -75.82443237 211.79266357 C-75.79929565 213.06947998 -75.77415894 214.34629639 -75.7482605 215.6618042 C-75.68316578 224.01562619 -75.83136583 229.5602791 -81.44943237 236.04266357 C-85.13106938 239.18552444 -87.74320687 240.4738974 -92.59347534 240.52069092 C-93.49476166 240.53345062 -94.39604797 240.54621033 -95.324646 240.55935669 C-96.77473557 240.56269516 -96.77473557 240.56269516 -98.25411987 240.56610107 C-99.75581223 240.57608627 -99.75581223 240.57608627 -101.2878418 240.58627319 C-103.40434941 240.59639174 -105.52088888 240.60109046 -107.63742065 240.60076904 C-110.86826415 240.60513833 -114.09773711 240.64145637 -117.32833862 240.67938232 C-119.38692771 240.68525147 -121.44552328 240.68922021 -123.50411987 240.69110107 C-124.46679779 240.70547211 -125.42947571 240.71984314 -126.42132568 240.73464966 C-132.13767096 240.69589413 -135.50408645 240.09921367 -140.01193237 236.23016357 C-144.38206368 231.26947398 -145.13637604 228.84330584 -145.10958862 222.25360107 C-145.10817368 221.56835358 -145.10675873 220.88310608 -145.1053009 220.17709351 C-145.09969912 217.98640597 -145.08714643 215.79582027 -145.07443237 213.60516357 C-145.0694176 212.12079005 -145.06485465 210.63641492 -145.0607605 209.15203857 C-145.04972914 205.51138042 -145.03246336 201.87078193 -145.01193237 198.23016357 C-145.62826538 198.10609131 -146.24459839 197.98201904 -146.87960815 197.85418701 C-148.09366333 197.59943604 -148.09366333 197.59943604 -149.33224487 197.33953857 C-150.13420288 197.17421631 -150.93616089 197.00889404 -151.76242065 196.83856201 C-156.13257319 195.6566193 -158.34074382 193.34856057 -160.61949158 189.55149841 C-162.21998332 185.73390776 -162.39862608 182.97010891 -162.41598511 178.83880615 C-162.42284836 178.12408142 -162.42971161 177.40935669 -162.43678284 176.67297363 C-162.45499765 174.32334185 -162.45121902 171.9743817 -162.44552612 169.62469482 C-162.45009257 167.97810146 -162.45539951 166.33150999 -162.46141052 164.68492126 C-162.47033277 161.23597468 -162.46793113 157.78725972 -162.45797729 154.33831787 C-162.44652617 149.94493803 -162.46664372 145.55236659 -162.49589443 141.1590929 C-162.51435871 137.75728877 -162.51394313 134.35567437 -162.50825691 130.95383263 C-162.50810474 129.33570922 -162.51406174 127.71757208 -162.52654839 126.09949684 C-162.62310504 111.52876884 -160.02339165 100.34824357 -150.01193237 89.23016357 C-143.59501538 83.49431239 -134.84884281 78.23016357 -126.01193237 78.23016357 C-125.75445473 77.24823784 -125.75445473 77.24823784 -125.49177551 76.24647522 C-123.59905557 69.15399068 -121.4447579 62.17934621 -119.14083862 55.21063232 C-118.7772374 54.1084285 -118.41363617 53.00622467 -118.03901672 51.87062073 C-117.27505845 49.55998666 -116.50941647 47.24990864 -115.74215698 44.94036865 C-114.57281741 41.41279167 -113.41635064 37.88115012 -112.25997925 34.3493042 C-111.51272254 32.09448489 -110.76470214 29.83991849 -110.01583862 27.58563232 C-109.67404068 26.53554489 -109.33224274 25.48545746 -108.98008728 24.40354919 C-106.54328653 17.13741933 -103.98223262 11.58075944 -98.07443237 6.48016357 C-97.42603394 5.90781982 -96.7776355 5.33547607 -96.10958862 4.74578857 C-91.48225055 1.40238602 -87.0545638 0.9069891 -81.47677612 0.81610107 C-80.29737457 0.78677994 -80.29737457 0.78677994 -79.09414673 0.75686646 C-76.37934968 0.69451634 -73.66459252 0.64876753 -70.94943237 0.60516357 C-69.99404572 0.58747925 -69.03865906 0.56979492 -68.05432129 0.55157471 C-45.37318601 0.14122184 -22.68430049 0.06305859 0 0 Z " fill="#000000" transform="translate(162.01193237304688,237.76983642578125)"/>
<path d="M0 0 C8.92628303 4.8077223 13.37677455 12.81087381 18.4765625 21.21484375 C20.80381614 25.04587463 23.24320724 28.78466708 25.75 32.5 C29.88666471 38.65326823 33.9553025 44.84839801 38 51.0625 C43.79801219 59.96789015 49.61158052 68.86285702 55.4375 77.75 C57.05736654 80.2213051 58.67715348 82.69266235 60.296875 85.1640625 C60.69641891 85.77369339 61.09596283 86.38332428 61.50761414 87.01142883 C67.66946783 96.41445216 73.81899595 105.82553861 79.96972656 115.23583984 C82.79123485 119.55236571 85.6133487 123.86849547 88.43554688 128.18457031 C89.84580828 130.3414026 91.25596569 132.49830289 92.66601562 134.65527344 C95.94432169 139.66995755 99.22342811 144.68411173 102.50579834 149.69613647 C104.03311098 152.02839286 105.55990813 154.3609865 107.08666992 156.69360352 C108.14647445 158.31233801 109.20701158 159.93059279 110.26757812 161.54882812 C112.20447246 164.50834185 114.13573123 167.47138506 116.0625 170.4375 C116.72096924 171.45078369 117.37943848 172.46406738 118.05786133 173.50805664 C118.68716553 174.48508545 119.31646973 175.46211426 119.96484375 176.46875 C120.80776978 177.77489258 120.80776978 177.77489258 121.66772461 179.10742188 C125.67644946 185.80430092 125.9486493 193.2171155 124.66796875 200.76171875 C122.93433664 207.1705652 119.20239468 212.276254 114.0625 216.4375 C107.76031061 220.00315204 102.33001852 221.01946575 95.16395569 220.9521637 C94.20777027 220.95910922 93.25158485 220.96605475 92.26642412 220.97321075 C89.08370554 220.99140969 85.90173835 220.98123607 82.71899414 220.97094727 C80.42849676 220.9780093 78.13800404 220.98675551 75.84751892 220.99705505 C69.6408901 221.01952637 63.43451657 221.01661448 57.2278626 221.00773358 C52.04145598 221.00261785 46.85509709 221.00992102 41.66869539 221.01720566 C28.73241818 221.03516817 15.79629907 221.02880133 2.86002921 221.01103585 C-8.35863368 220.99634133 -19.57702869 221.01096748 -30.79565709 221.03980602 C-42.33345496 221.06924264 -53.87109965 221.07965244 -65.40893656 221.07062382 C-71.87918278 221.06569887 -78.34922082 221.06788727 -84.81944084 221.08841133 C-90.90417709 221.1067893 -96.98841618 221.1007831 -103.07312584 221.07621193 C-105.30232242 221.07121096 -107.53155702 221.07467513 -109.76072311 221.08736038 C-112.81170679 221.10334484 -115.86106406 221.08828833 -118.91197205 221.06568909 C-119.78718646 221.07752482 -120.66240086 221.08936054 -121.56413692 221.10155493 C-130.04135575 220.9746019 -136.96834033 217.77093928 -142.875 211.6875 C-147.84976023 205.42211802 -149.25384275 199.0685963 -149.3359375 191.1875 C-148.04056738 182.24690621 -143.78688707 175.66026374 -138.70465088 168.30587769 C-136.64565793 165.32609123 -134.62077155 162.32316855 -132.58984375 159.32421875 C-131.98438721 158.43353447 -131.98438721 158.43353447 -131.36669922 157.52485657 C-127.98689997 152.54364789 -124.74428053 147.4850175 -121.5625 142.375 C-117.41123701 135.73171101 -113.1416762 129.18400482 -108.77661133 122.67944336 C-102.14253854 112.78403366 -95.65349876 102.79336622 -89.14306641 92.81640625 C-85.57834558 87.35428648 -82.00749069 81.89617615 -78.4375 76.4375 C-77.02080701 74.27085055 -75.60414037 72.10418386 -74.1875 69.9375 C-71.35416667 65.60416667 -68.52083333 61.27083333 -65.6875 56.9375 C-64.98544434 55.8635498 -64.28338867 54.78959961 -63.56005859 53.68310547 C-62.15233773 51.53055875 -60.74381732 49.37853469 -59.33447266 47.22705078 C-56.03939939 42.19475565 -52.75213004 37.15791491 -49.49420166 32.10150146 C-47.97048777 29.73776572 -46.44208165 27.37708137 -44.91333008 25.01660156 C-43.84846422 23.36817316 -42.79032223 21.71540723 -41.73242188 20.0625 C-32.0028619 5.05281573 -19.65548944 -7.94366931 0 0 Z " fill="#FED900" transform="translate(267.9375,1.5625)"/>
<path d="M0 0 C1.32351607 -0.00551503 1.32351607 -0.00551503 2.67376983 -0.01114148 C5.64229078 -0.02218989 8.61077674 -0.02602414 11.57931519 -0.02983093 C13.70306001 -0.03609476 15.82680374 -0.04274149 17.95054626 -0.04974365 C23.72971041 -0.06716201 29.50886628 -0.07770795 35.28805017 -0.08594918 C38.89847489 -0.09109814 42.50889702 -0.09717396 46.11931992 -0.10346031 C57.41474163 -0.12251572 68.71015681 -0.13674547 80.00559151 -0.14507228 C93.04530499 -0.15484346 106.08484866 -0.18115855 119.1245023 -0.22157317 C129.2019039 -0.25173495 139.27925683 -0.26654127 149.35670269 -0.26985329 C155.37596151 -0.27220391 161.395039 -0.28116596 167.41424942 -0.30631447 C173.0794004 -0.32960073 178.74425074 -0.333826 184.40943718 -0.32355309 C186.48586845 -0.32305774 188.56231455 -0.32937783 190.63870049 -0.34310913 C193.47995118 -0.36084327 196.32012471 -0.3537142 199.16137695 -0.34057617 C200.38548773 -0.35703004 200.38548773 -0.35703004 201.63432801 -0.37381631 C208.8481219 -0.29363043 214.79834931 1.83898627 220.2741394 6.58467102 C220.9960144 7.43029602 221.7178894 8.27592102 222.4616394 9.14717102 C223.1835144 9.97217102 223.9053894 10.79717102 224.6491394 11.64717102 C239.04917809 31.50929334 228.4616394 60.61423362 228.4616394 85.14717102 C143.9816394 85.14717102 59.5016394 85.14717102 -27.5383606 85.14717102 C-27.5383606 15.79581967 -27.5383606 15.79581967 -21.2258606 8.45967102 C-14.12902036 2.35308756 -9.53505431 -0.00211934 0 0 Z " fill="#F5412A" transform="translate(155.53836059570313,366.8528289794922)"/>
<path d="M0 0 C8.92628303 4.8077223 13.37677455 12.81087381 18.4765625 21.21484375 C20.80381614 25.04587463 23.24320724 28.78466708 25.75 32.5 C29.88666471 38.65326823 33.9553025 44.84839801 38 51.0625 C43.79801219 59.96789015 49.61158052 68.86285702 55.4375 77.75 C57.05736654 80.2213051 58.67715348 82.69266235 60.296875 85.1640625 C60.69641891 85.77369339 61.09596283 86.38332428 61.50761414 87.01142883 C67.66946783 96.41445216 73.81899595 105.82553861 79.96972656 115.23583984 C82.79123485 119.55236571 85.6133487 123.86849547 88.43554688 128.18457031 C89.84580828 130.3414026 91.25596569 132.49830289 92.66601562 134.65527344 C95.94432169 139.66995755 99.22342811 144.68411173 102.50579834 149.69613647 C104.03311098 152.02839286 105.55990813 154.3609865 107.08666992 156.69360352 C108.14647445 158.31233801 109.20701158 159.93059279 110.26757812 161.54882812 C112.20447246 164.50834185 114.13573123 167.47138506 116.0625 170.4375 C116.72096924 171.45078369 117.37943848 172.46406738 118.05786133 173.50805664 C118.68716553 174.48508545 119.31646973 175.46211426 119.96484375 176.46875 C120.80776978 177.77489258 120.80776978 177.77489258 121.66772461 179.10742188 C125.67644946 185.80430092 125.9486493 193.2171155 124.66796875 200.76171875 C122.93433664 207.1705652 119.20239468 212.276254 114.0625 216.4375 C107.76031061 220.00315204 102.33001852 221.01946575 95.16395569 220.9521637 C94.20777027 220.95910922 93.25158485 220.96605475 92.26642412 220.97321075 C89.08370554 220.99140969 85.90173835 220.98123607 82.71899414 220.97094727 C80.42849676 220.9780093 78.13800404 220.98675551 75.84751892 220.99705505 C69.6408901 221.01952637 63.43451657 221.01661448 57.2278626 221.00773358 C52.04145598 221.00261785 46.85509709 221.00992102 41.66869539 221.01720566 C28.73241818 221.03516817 15.79629907 221.02880133 2.86002921 221.01103585 C-8.35863368 220.99634133 -19.57702869 221.01096748 -30.79565709 221.03980602 C-42.33345496 221.06924264 -53.87109965 221.07965244 -65.40893656 221.07062382 C-71.87918278 221.06569887 -78.34922082 221.06788727 -84.81944084 221.08841133 C-90.90417709 221.1067893 -96.98841618 221.1007831 -103.07312584 221.07621193 C-105.30232242 221.07121096 -107.53155702 221.07467513 -109.76072311 221.08736038 C-112.81170679 221.10334484 -115.86106406 221.08828833 -118.91197205 221.06568909 C-119.78718646 221.07752482 -120.66240086 221.08936054 -121.56413692 221.10155493 C-130.04135575 220.9746019 -136.96834033 217.77093928 -142.875 211.6875 C-147.84976023 205.42211802 -149.25384275 199.0685963 -149.3359375 191.1875 C-148.04056738 182.24690621 -143.78688707 175.66026374 -138.70465088 168.30587769 C-136.64565793 165.32609123 -134.62077155 162.32316855 -132.58984375 159.32421875 C-131.98438721 158.43353447 -131.98438721 158.43353447 -131.36669922 157.52485657 C-127.98689997 152.54364789 -124.74428053 147.4850175 -121.5625 142.375 C-117.41123701 135.73171101 -113.1416762 129.18400482 -108.77661133 122.67944336 C-102.14253854 112.78403366 -95.65349876 102.79336622 -89.14306641 92.81640625 C-85.57834558 87.35428648 -82.00749069 81.89617615 -78.4375 76.4375 C-77.02080701 74.27085055 -75.60414037 72.10418386 -74.1875 69.9375 C-71.35416667 65.60416667 -68.52083333 61.27083333 -65.6875 56.9375 C-64.98544434 55.8635498 -64.28338867 54.78959961 -63.56005859 53.68310547 C-62.15233773 51.53055875 -60.74381732 49.37853469 -59.33447266 47.22705078 C-56.03939939 42.19475565 -52.75213004 37.15791491 -49.49420166 32.10150146 C-47.97048777 29.73776572 -46.44208165 27.37708137 -44.91333008 25.01660156 C-43.84846422 23.36817316 -42.79032223 21.71540723 -41.73242188 20.0625 C-32.0028619 5.05281573 -19.65548944 -7.94366931 0 0 Z M-20.9375 20.4375 C-22.67071677 22.72741566 -24.11582393 25.14664527 -25.5625 27.625 C-26.43634204 29.07050044 -27.31274168 30.51445716 -28.19140625 31.95703125 C-28.64273926 32.70033691 -29.09407227 33.44364258 -29.55908203 34.20947266 C-31.78304035 37.80420231 -34.13869735 41.30704867 -36.5 44.8125 C-41.42796981 52.15331465 -46.29092351 59.53451365 -51.125 66.9375 C-51.84502197 68.04013184 -52.56504395 69.14276367 -53.30688477 70.27880859 C-54.7821948 72.53854537 -56.25713348 74.79852415 -57.73193359 77.05859375 C-61.29665442 82.52071352 -64.86750931 87.97882385 -68.4375 93.4375 C-69.85419299 95.60414945 -71.27085963 97.77081614 -72.6875 99.9375 C-98.1875 138.9375 -98.1875 138.9375 -100.31591797 142.19262695 C-101.72131439 144.34212337 -103.12658942 146.49169916 -104.53173828 148.64135742 C-107.84687611 153.71267854 -111.16323666 158.78318734 -114.48394775 163.8508606 C-116.05024617 166.24132251 -117.61584802 168.63224024 -119.18139648 171.02319336 C-120.28496561 172.70796444 -121.38954032 174.3920767 -122.49414062 176.07617188 C-123.16380859 177.09904297 -123.83347656 178.12191406 -124.5234375 179.17578125 C-125.1117334 180.07337158 -125.7000293 180.97096191 -126.30615234 181.89575195 C-130.97934374 189.10763981 -130.97934374 189.10763981 -130.9375 197.4375 C-129.14386089 200.2475346 -127.91869065 201.94690468 -124.9375 203.4375 C-122.01355274 203.54008516 -119.11316841 203.58086716 -116.18876648 203.57794189 C-114.81329603 203.58239858 -114.81329603 203.58239858 -113.41003829 203.5869453 C-110.31851579 203.59565941 -107.22703188 203.59714283 -104.13549805 203.59863281 C-101.9265942 203.60325907 -99.71769116 203.60828346 -97.50878906 203.61367798 C-91.49430108 203.62682251 -85.47982427 203.63325093 -79.46532416 203.63768864 C-75.7107101 203.64061604 -71.95609911 203.64472021 -68.20148659 203.64919281 C-57.80873488 203.66130466 -47.41598535 203.67168572 -37.02322674 203.6750679 C-36.35784226 203.67528747 -35.69245778 203.67550703 -35.00691013 203.67573325 C-34.00642543 203.67606067 -34.00642543 203.67606067 -32.98572892 203.6763947 C-31.63412201 203.67683817 -30.28251511 203.67728473 -28.9309082 203.67773438 C-28.26046243 203.6779558 -27.59001667 203.67817723 -26.89925436 203.67840537 C-16.03573063 203.68235334 -5.17227398 203.69980667 5.69122384 203.7230939 C16.84114258 203.74680241 27.99103684 203.7590115 39.14098328 203.76043582 C45.4026607 203.76148565 51.66424354 203.76743118 57.9258976 203.78525543 C63.81505672 203.80169264 69.70404974 203.80391278 75.59322357 203.79511642 C77.75679404 203.79434372 79.92037327 203.79871938 82.08392143 203.80857468 C85.03375249 203.82122531 87.98298917 203.81545479 90.93281555 203.80499268 C92.22211793 203.81707728 92.22211793 203.81707728 93.53746682 203.82940602 C98.19756332 203.79065541 101.29680622 203.48857711 105.0625 200.4375 C107.5499678 196.7062983 107.74537055 193.76005093 107.0625 189.4375 C105.92886575 186.68106056 104.37103397 184.32599559 102.6875 181.875 C102.00095337 180.82832153 102.00095337 180.82832153 101.30053711 179.76049805 C99.90482977 177.64093082 98.48596516 175.53849201 97.0625 173.4375 C96.32014623 172.32128766 95.57916299 171.20416206 94.83984375 170.0859375 C93.27924944 167.73124629 91.70803347 165.38399035 90.1328125 163.0390625 C86.0430653 156.93107131 82.02572566 150.77527299 78 144.625 C77.5904306 143.99940186 77.18086121 143.37380371 76.75888062 142.72924805 C73.85894365 138.29941303 70.96053661 133.86857839 68.0625 129.4375 C67.31234498 128.29068504 66.56218246 127.14387499 65.81201172 125.99707031 C61.5918843 119.54522731 57.37323273 113.09242075 53.15527344 106.63916016 C49.62493661 101.23822254 46.09366739 95.83789461 42.5625 90.4375 C41.14582895 88.2708362 39.72916228 86.10416953 38.3125 83.9375 C37.61125 82.865 36.91 81.7925 36.1875 80.6875 C29.8125 70.9375 29.8125 70.9375 27.68481445 67.68310547 C26.27745087 65.53085751 24.86973976 63.37883676 23.46166992 61.22705078 C20.16576278 56.18939788 16.87321298 51.14965504 13.59341431 46.10150146 C12.05814709 43.7389531 10.5208471 41.37773074 8.98339844 39.01660156 C7.91013443 37.36651726 6.83978293 35.7145397 5.76953125 34.0625 C-0.42629965 23.68620039 -0.42629965 23.68620039 -8.9375 15.4375 C-14.46137345 14.5782308 -17.20969114 16.63374871 -20.9375 20.4375 Z " fill="#010000" transform="translate(267.9375,1.5625)"/>
<path d="M0 0 C1.29821686 -0.0087616 2.59643372 -0.01752319 3.93399048 -0.02655029 C7.48375054 -0.04928552 11.03278156 -0.04053201 14.58255386 -0.02465487 C18.3033464 -0.01196551 22.02407796 -0.02374437 25.74487305 -0.03158569 C31.99246387 -0.0406735 38.23975882 -0.02871745 44.48730469 -0.00488281 C51.70276061 0.02232715 58.91751007 0.01351235 66.13294888 -0.01401484 C72.33614605 -0.03672997 78.53913096 -0.03989436 84.7423563 -0.02682149 C88.44370155 -0.01904005 92.14471509 -0.01794894 95.84603882 -0.03450394 C99.97330325 -0.05167573 104.09935645 -0.02785429 108.2265625 0 C109.44856354 -0.01012115 110.67056458 -0.02024231 111.92959595 -0.03067017 C121.16015695 0.08479948 121.16015695 0.08479948 124.77859497 2.86329651 C127.04742464 5.56845098 128.26595113 7.50228668 129.35498047 10.83276367 C129.69488007 11.8405336 130.03477966 12.84830353 130.38497925 13.88661194 C130.89630905 15.50242409 130.89630905 15.50242409 131.41796875 17.15087891 C131.78681183 18.26631577 132.15565491 19.38175262 132.53567505 20.5309906 C133.30928754 22.88233862 134.07357933 25.23677121 134.82910156 27.59399414 C135.98728137 31.20635402 137.17259974 34.8088821 138.36328125 38.41064453 C139.11226967 40.69853524 139.8597189 42.98693052 140.60546875 45.27587891 C140.95850067 46.35511124 141.31153259 47.43434357 141.67526245 48.54627991 C142.1567424 50.05320656 142.1567424 50.05320656 142.64794922 51.59057617 C142.93185516 52.47262222 143.21576111 53.35466827 143.50827026 54.26344299 C144.11328125 56.64697266 144.11328125 56.64697266 144.11328125 60.64697266 C84.71328125 60.64697266 25.31328125 60.64697266 -35.88671875 60.64697266 C-35.24612481 56.16281509 -34.7355593 52.68660797 -33.3996582 48.52539062 C-33.09876785 47.58106171 -32.7978775 46.63673279 -32.48786926 45.66378784 C-32.16187241 44.66566071 -31.83587555 43.66753357 -31.5 42.63916016 C-31.16050827 41.595513 -30.82101654 40.55186584 -30.47123718 39.47659302 C-29.75255582 37.27852143 -29.03038266 35.08158882 -28.30493164 32.88574219 C-27.2024745 29.5318772 -26.12754561 26.16993873 -25.05273438 22.80712891 C-24.34934371 20.66725057 -23.64432003 18.52790819 -22.9375 16.38916016 C-22.6216243 15.38698456 -22.3057486 14.38480896 -21.9803009 13.3522644 C-21.50532417 11.94522751 -21.50532417 11.94522751 -21.02075195 10.50976562 C-20.75285355 9.68926727 -20.48495514 8.86876892 -20.2089386 8.02340698 C-15.4307729 -0.56442129 -8.98718942 -0.07443589 0 0 Z " fill="#00A8F7" transform="translate(201.88671875,289.35302734375)"/>
<path d="M0 0 C15.11667743 -0.09272874 30.23332178 -0.1640463 45.35021973 -0.20724869 C52.36980899 -0.22784454 59.38921792 -0.2559077 66.40869141 -0.30175781 C73.18437404 -0.3459943 79.95986929 -0.36914603 86.73568726 -0.37950897 C89.31923367 -0.38689299 91.90276997 -0.40131222 94.48623657 -0.42292023 C98.10823617 -0.45200644 101.72946468 -0.45595364 105.3515625 -0.45410156 C106.4168367 -0.46848267 107.4821109 -0.48286377 108.57966614 -0.49768066 C115.03214981 -0.46203862 119.54440651 0.51539221 125 4 C125.886875 4.556875 126.77375 5.11375 127.6875 5.6875 C132.12467696 10.12467696 135.84981972 16.46772406 136.12025452 22.82841492 C136.11803391 23.9764711 136.11581329 25.12452728 136.11352539 26.30737305 C136.11340454 27.62668823 136.11328369 28.94600342 136.11315918 30.30529785 C136.10812364 31.70743863 136.10295706 33.10957895 136.09765625 34.51171875 C136.09664917 35.78648071 136.09564209 37.06124268 136.09460449 38.37463379 C136.08936463 43.14559832 136.07540341 47.91655004 136.0625 52.6875 C136.041875 63.350625 136.02125 74.01375 136 85 C104.98 85 73.96 85 42 85 C42 79.39 42 73.78 42 68 C43.98 67.01 45.96 66.02 48 65 C49.5788684 63.4211316 49.28319742 61.80707663 49.375 59.625 C49.41905139 57.20330877 49.41905139 57.20330877 49 55 C46.38479318 52.73819951 44.26192902 52.08730967 41 51 C39.9375 48.890625 39.9375 48.890625 39 46.25 C37.6279816 42.55610432 36.09323342 39.34917347 34 36 C34 35.34 34 34.68 34 34 C34.91523438 33.89042969 35.83046875 33.78085937 36.7734375 33.66796875 C37.96195312 33.50941406 39.15046875 33.35085938 40.375 33.1875 C41.55835938 33.03667969 42.74171875 32.88585937 43.9609375 32.73046875 C47.29532084 32.29300666 47.29532084 32.29300666 49 29 C49.38846766 27.05141859 49.38846766 27.05141859 49.375 25 C49.41753906 23.9790625 49.41753906 23.9790625 49.4609375 22.9375 C49.14118534 20.89499318 49.14118534 20.89499318 47.54248047 19.41088867 C43.73430505 17.29763288 40.14993422 17.5203732 35.859375 17.48828125 C34.53610199 17.46135445 34.53610199 17.46135445 33.18609619 17.43388367 C30.37411245 17.37979029 27.56229835 17.34588824 24.75 17.3125 C22.84112223 17.27932605 20.93226685 17.24483632 19.0234375 17.20898438 C14.34893405 17.12159148 9.67520209 17.06151582 5 17 C3.35 11.39 1.7 5.78 0 0 Z " fill="#663BB9" transform="translate(359,333)"/>
<path d="M0 0 C1.48287003 -0.002062 1.48287003 -0.002062 2.99569702 -0.00416565 C4.0789476 -0.00057037 5.16219818 0.0030249 6.27827454 0.00672913 C7.41988037 0.0065831 8.56148621 0.00643707 9.73768616 0.00628662 C13.51987086 0.00698458 17.30200662 0.0147716 21.08418274 0.02259827 C23.70306369 0.02446286 26.32194499 0.02588657 28.94082642 0.02688599 C35.13498766 0.02999499 41.32913126 0.03820258 47.52328473 0.04823548 C54.57521284 0.05940998 61.62714179 0.06491044 68.67907655 0.06993091 C83.18521502 0.08038554 97.69133867 0.09817792 112.19746399 0.12025452 C109.72246399 8.53525452 109.72246399 8.53525452 107.19746399 17.12025452 C105.97116272 17.13483704 104.74486145 17.14941956 103.48139954 17.16444397 C98.93569133 17.22237534 94.39048118 17.29960832 89.84516907 17.38270569 C87.87715228 17.41597937 85.9090395 17.44400367 83.94087219 17.46669006 C81.11322587 17.50019129 78.28646116 17.55250415 75.45918274 17.60853577 C74.57784164 17.61492569 73.69650055 17.62131561 72.78845215 17.62789917 C71.55751579 17.65759041 71.55751579 17.65759041 70.30171204 17.68788147 C69.21916389 17.70453606 69.21916389 17.70453606 68.11474609 17.7215271 C65.6004195 18.24441883 64.71468045 19.06789066 63.19746399 21.12025452 C62.72858663 25.34015079 62.50138651 27.8275392 64.50996399 31.55775452 C68.7798839 34.04026609 73.33530936 33.95259401 78.19746399 34.12025452 C76.61077932 38.14744519 74.882945 42.09122859 73.09980774 46.03431702 C72.10799563 48.24462871 72.10799563 48.24462871 71.19746399 51.12025452 C68.89493915 52.1892839 66.56026139 53.19201268 64.19746399 54.12025452 C62.61848566 55.69923285 62.95202889 57.31388023 62.88496399 59.49525452 C62.854801 63.1986672 62.854801 63.1986672 65.00996399 66.12025452 C67.29649805 67.21261213 67.29649805 67.21261213 70.19746399 68.12025452 C70.19746399 73.73025452 70.19746399 79.34025452 70.19746399 85.12025452 C39.17746399 85.12025452 8.15746399 85.12025452 -23.80253601 85.12025452 C-23.86441101 74.72525452 -23.92628601 64.33025452 -23.99003601 53.62025452 C-24.01734802 50.35183655 -24.04466003 47.08341858 -24.07279968 43.71595764 C-24.08156558 41.11114369 -24.08920927 38.50632561 -24.09550476 35.90150452 C-24.10334488 35.23405212 -24.111185 34.56659973 -24.1192627 33.87892151 C-24.23781036 23.24445623 -23.44421444 14.15281164 -15.80253601 6.12025452 C-10.78872502 2.32310217 -6.37394363 -0.00683167 0 0 Z " fill="#FD9500" transform="translate(40.80253601074219,332.87974548339844)"/>
<path d="M0 0 C1.69704575 -0.01496269 1.69704575 -0.01496269 3.42837524 -0.03022766 C5.29158165 -0.03122467 5.29158165 -0.03122467 7.19242859 -0.03224182 C8.49996094 -0.04056534 9.80749329 -0.04888885 11.15464783 -0.0574646 C14.7436101 -0.0794229 18.33248716 -0.08821044 21.92150903 -0.09329104 C24.16436986 -0.09693356 26.40720834 -0.10317312 28.65006065 -0.11029243 C36.47653052 -0.13479319 44.30293406 -0.14783982 52.12944031 -0.15138245 C59.42146078 -0.15501651 66.71306002 -0.18490055 74.00495178 -0.22678703 C80.26748925 -0.26149768 86.52988721 -0.27693103 92.79252023 -0.27762848 C96.53197459 -0.27842116 100.27100012 -0.28715424 104.010355 -0.31562614 C108.18332678 -0.34668837 112.35529753 -0.33774361 116.52836609 -0.32521057 C118.38246346 -0.34746201 118.38246346 -0.34746201 120.27401733 -0.37016296 C129.61061617 -0.29018635 129.61061617 -0.29018635 133.22851562 2.48750305 C135.48694531 5.19323323 136.70891639 7.13484309 137.79618835 10.45994568 C138.13608795 11.46771561 138.47598755 12.47548553 138.82618713 13.51379395 C139.33751694 15.12960609 139.33751694 15.12960609 139.85917664 16.77806091 C140.22801971 17.89349777 140.59686279 19.00893463 140.97688293 20.15817261 C141.75049543 22.50952063 142.51478721 24.86395322 143.27030945 27.22117615 C144.42848925 30.83353603 145.61380763 34.4360641 146.80448914 38.03782654 C147.55347756 40.32571724 148.30092679 42.61411253 149.04667664 44.90306091 C149.39970856 45.98229324 149.75274048 47.06152557 150.11647034 48.17346191 C150.59795029 49.68038857 150.59795029 49.68038857 151.0891571 51.21775818 C151.37306305 52.09980423 151.65696899 52.98185028 151.94947815 53.890625 C152.55448914 56.27415466 152.55448914 56.27415466 152.55448914 60.27415466 C118.23448914 60.27415466 83.91448914 60.27415466 48.55448914 60.27415466 C45.25448914 50.70415466 41.95448914 41.13415466 38.55448914 31.27415466 C37.23448914 29.62415466 35.91448914 27.97415466 34.55448914 26.27415466 C34.55448914 25.61415466 34.55448914 24.95415466 34.55448914 24.27415466 C33.98005066 23.98701599 33.40561218 23.69987732 32.81376648 23.40403748 C31.3991383 22.69657052 29.99175824 21.97419987 28.59599304 21.23020935 C20.30369053 17.31424576 11.9079997 17.6045704 2.92948914 17.52415466 C1.33700951 17.49594336 -0.25544057 17.46600887 -1.84785461 17.43431091 C-5.71368616 17.36106152 -9.57916908 17.31111656 -13.44551086 17.27415466 C-13.14621658 15.84490642 -12.84183692 14.41672255 -12.53535461 12.98899841 C-12.36640686 12.19356628 -12.19745911 11.39813416 -12.02339172 10.57859802 C-10.21360125 3.3616093 -7.51916083 0.0355012 0 0 Z " fill="#00A8F7" transform="translate(304.4455108642578,255.72584533691406)"/>
<path d="M0 0 C1.31103699 -0.00394272 2.62207397 -0.00788544 3.97283936 -0.01194763 C7.56184238 -0.02191263 11.15005416 -0.00076966 14.73894238 0.02653241 C18.49667647 0.05038486 22.25439547 0.04741763 26.01219177 0.0478363 C32.32125218 0.05246242 38.63001053 0.07609182 44.93896484 0.11230469 C52.23207267 0.1540552 59.52490864 0.1716207 66.81812912 0.17492443 C74.58541907 0.17852466 82.35261127 0.19739892 90.11986041 0.22204471 C92.35715001 0.22827141 94.59443216 0.23190891 96.83172798 0.23507881 C100.99991693 0.24207836 105.16782697 0.26647082 109.3359375 0.29296875 C111.19610756 0.29396576 111.19610756 0.29396576 113.09385681 0.29498291 C114.79513229 0.3099456 114.79513229 0.3099456 116.53077698 0.32521057 C117.51613214 0.32986108 118.50148729 0.33451159 119.5167017 0.33930302 C122.2107208 0.61016854 123.83301819 1.14821989 126.10327148 2.59936523 C127.33374023 4.55249023 127.33374023 4.55249023 128.29077148 6.84936523 C128.77610352 7.97084961 128.77610352 7.97084961 129.27124023 9.11499023 C130.2112093 11.92165844 130.64343991 14.67949737 131.10327148 17.59936523 C130.11520508 17.61394775 129.12713867 17.62853027 128.10913086 17.64355469 C124.41118835 17.70192859 120.71383013 17.77915547 117.01635742 17.86181641 C115.42205351 17.89488321 113.82763766 17.92297083 112.2331543 17.94580078 C109.92896222 17.97968596 107.62577924 18.0320126 105.32202148 18.08764648 C104.61960327 18.09403641 103.91718506 18.10042633 103.19348145 18.10700989 C95.68314554 18.32559612 88.93480147 20.80455169 83.10327148 25.59936523 C76.08648024 36.13013098 76.08648024 36.13013098 69.10327148 60.59936523 C34.78327148 60.59936523 0.46327148 60.59936523 -34.89672852 60.59936523 C-34.25392975 56.09977389 -33.74662501 52.64410609 -32.39379883 48.4777832 C-32.08968079 47.53345428 -31.78556274 46.58912537 -31.472229 45.61618042 C-31.14309509 44.61805328 -30.81396118 43.61992615 -30.47485352 42.59155273 C-30.13299011 41.54790558 -29.79112671 40.50425842 -29.43890381 39.4289856 C-28.71586908 37.23095919 -27.98950322 35.03402607 -27.26000977 32.83813477 C-26.14971346 29.48338422 -25.06203522 26.12182257 -23.97485352 22.75952148 C-23.26790106 20.61974185 -22.55961248 18.48040309 -21.84985352 16.34155273 C-21.52881653 15.33937714 -21.20777954 14.33720154 -20.87701416 13.30465698 C-20.56028748 12.36663239 -20.24356079 11.42860779 -19.91723633 10.4621582 C-19.64711731 9.64165985 -19.37699829 8.8211615 -19.09869385 7.97579956 C-14.69829763 -0.72432875 -8.84121201 -0.10593187 0 0 Z " fill="#00A8F7" transform="translate(89.896728515625,255.400634765625)"/>
<path d="M0 0 C4.90785586 3.50561133 7.73020636 7.21449012 10.75 12.375 C11.62698777 13.82407947 12.50593861 15.27197247 13.38671875 16.71875 C13.8254834 17.44320312 14.26424805 18.16765625 14.71630859 18.9140625 C16.58738765 21.954477 18.56476395 24.91683816 20.5625 27.875 C25.118755 34.65099255 29.5976497 41.47596554 34.0625 48.3125 C34.60609665 49.14476105 34.60609665 49.14476105 35.16067505 49.99383545 C37.028239 52.85322263 38.89535302 55.71290318 40.76220703 58.57275391 C44.33835348 64.05054052 47.91949836 69.52505962 51.5 75 C52.91929718 77.17055569 54.33856798 79.34112863 55.7578125 81.51171875 C56.45938477 82.58470215 57.16095703 83.65768555 57.88378906 84.76318359 C59.9826597 87.97347742 62.08121538 91.18397692 64.1796875 94.39453125 C71.21367002 105.15547466 78.25184079 115.91364136 85.29840088 126.66635132 C87.67686302 130.29590122 90.05487811 133.92574406 92.43289185 137.55558777 C94.43666552 140.61412184 96.44072201 143.67246995 98.4453125 146.73046875 C100.42396824 149.74902218 102.40164905 152.76821226 104.37866211 155.7878418 C105.47118247 157.45599883 106.56467963 159.123516 107.65820312 160.79101562 C108.31755859 161.79841797 108.97691406 162.80582031 109.65625 163.84375 C110.23181641 164.72224609 110.80738281 165.60074219 111.40039062 166.50585938 C117.19924496 175.54754068 117.19924496 175.54754068 116 182 C113.8755173 185.44312714 112.85147359 186.71617547 109 188 C106.02455546 188.09428717 103.07281946 188.13025426 100.09736633 188.12025452 C99.17600378 188.12110894 98.25464122 188.12196337 97.30535859 188.12284368 C94.20526185 188.12449623 91.10521874 188.11898076 88.00512695 188.11352539 C85.78796388 188.11324344 83.57080071 188.1134014 81.3536377 188.1139679 C75.3230078 188.11425558 69.29239768 188.10836351 63.26177239 188.10139394 C56.96367508 188.0951556 50.66557734 188.09455622 44.36747742 188.09336853 C33.7927517 188.09061051 23.21803249 188.08435828 12.64331055 188.07543945 C1.75073279 188.06626209 -9.14184299 188.05918284 -20.03442383 188.05493164 C-20.70570966 188.05466892 -21.3769955 188.05440619 -22.06862333 188.05413551 C-25.43622744 188.05283048 -28.80383157 188.05156677 -32.17143571 188.05032361 C-60.11429554 188.03986243 -88.05714726 188.02226572 -116 188 C-116 187.67 -116 187.34 -116 187 C-45.71 186.67 24.58 186.34 97 186 C98.68670188 180.93989437 99.01724823 175.65819882 97.08496094 170.60888672 C94.02558539 164.70100094 90.63534868 159.17259819 86.875 153.6875 C85.62768487 151.84197072 84.38166375 149.99556643 83.13671875 148.1484375 C82.47075684 147.16198242 81.80479492 146.17552734 81.11865234 145.15917969 C77.26151567 139.4076991 73.47698397 133.60868233 69.6875 127.8125 C68.87227437 126.56662337 68.05700727 125.32077387 67.24169922 124.07495117 C65.21561987 120.97842791 63.19057284 117.88123118 61.16595459 114.78375244 C59.33623066 111.9845229 57.50596392 109.18564838 55.67578125 106.38671875 C53.58858406 103.19454911 51.50150501 100.00230254 49.41479492 96.80981445 C43.31450305 87.47766432 37.204837 78.15167509 31.0925293 68.82739258 C27.25022128 62.96530889 23.41144781 57.10098405 19.58203125 51.23046875 C18.1588637 49.04947295 16.73568677 46.86848326 15.3125 44.6875 C14.62873291 43.63884766 13.94496582 42.59019531 13.24047852 41.50976562 C9.65472503 36.02132409 6.04117803 30.55347479 2.3828125 25.11328125 C2.00720688 24.55388351 1.63160126 23.99448578 1.24461365 23.4181366 C-0.55643472 20.73646127 -2.36231143 18.05829838 -4.17651367 15.38549805 C-4.81049072 14.44359619 -5.44446777 13.50169434 -6.09765625 12.53125 C-6.65976807 11.70173828 -7.22187988 10.87222656 -7.80102539 10.01757812 C-9 8 -9 8 -9 6 C-9.99 6.33 -10.98 6.66 -12 7 C-9.63070063 1.2741932 -6.23987004 -0.99837921 0 0 Z " fill="#F8BC00" transform="translate(259,17)"/>
<path d="M0 0 C6.77174248 4.0153385 10.57448151 8.7221304 12.99609375 16.18359375 C14.21238227 25.09921808 12.87733237 32.68474191 7.43359375 39.87109375 C1.84560724 45.84256953 -4.50089098 48.46354397 -12.62890625 48.74609375 C-20.75623467 48.41143905 -25.99271218 45.51534359 -32.00390625 40.18359375 C-36.29911233 33.9131519 -39.01266598 27.51313265 -38.515625 19.84765625 C-36.85165331 11.18484182 -32.15264462 5.1422562 -25.00390625 0.18359375 C-17.00185977 -4.49684853 -8.13256546 -4.18950342 0 0 Z " fill="#030100" transform="translate(183.00390625,386.81640625)"/>
<path d="M0 0 C7.25182037 4.15055957 12.02750699 9.75794465 14.25390625 17.84765625 C15.85904663 25.81551525 13.81783465 33.11958457 9.375 39.8125 C5.58142616 44.71915838 0.71827181 47.65982849 -5.3125 49 C-13.77099634 49.91940178 -20.28566222 48.96012079 -27.3125 44 C-32.9016221 39.13167378 -35.75455697 33.48214232 -36.6640625 26.17578125 C-37.02434978 18.77092942 -35.79415581 12.99279148 -31.3125 7 C-22.4993833 -1.58999983 -11.75205674 -5.3369432 0 0 Z " fill="#030100" transform="translate(352.3125,386)"/>
<path d="M0 0 C6.10827579 3.71596897 10.37096816 8.09702171 12.5546875 15.08203125 C14.15016607 23.30254463 13.32709931 31.08384611 8.7109375 38.1015625 C4.47844575 43.54498513 -0.59864018 46.04980714 -7.03515625 48.1953125 C-15.2422904 49.0579242 -21.47626395 48.40717701 -28.03515625 43.1953125 C-34.23565848 37.41784648 -38.06227541 31.51591915 -38.53515625 22.8828125 C-38.28669121 15.62763336 -35.79372314 10.17336754 -30.875 4.86328125 C-21.85521695 -3.49394678 -11.32758088 -5.85838722 0 0 Z " fill="#030200" transform="translate(72.03515625,352.8046875)"/>
<path d="M0 0 C7.24772768 4.14821713 12.04355282 9.76056564 14.25 17.85546875 C15.75227068 25.21927769 13.98382587 31.37809092 10.6875 38 C6.69915092 43.61055324 1.33164528 47.24611072 -5.3125 49 C-13.68973189 50.19998186 -20.37262512 48.89873521 -27.3125 44 C-32.79199657 39.22716155 -35.75462161 33.58700008 -36.62890625 26.3984375 C-36.96253732 18.75720967 -35.63073058 11.82208338 -30.51171875 5.92578125 C-21.82694316 -2.11817595 -11.11193618 -5.01392242 0 0 Z " fill="#010101" transform="translate(463.3125,352)"/>
<path d="M0 0 C3.97245401 0.70936679 5.67231707 1.79731707 8.5 4.625 C9.96965208 7.56430415 9.65171072 10.19226546 9.67700195 13.47387695 C9.68357315 14.17814819 9.69014435 14.88241943 9.69691467 15.60803223 C9.71665551 17.94311628 9.72831214 20.27813599 9.73828125 22.61328125 C9.74235678 23.4105834 9.7464323 24.20788555 9.75063133 25.02934837 C9.77149576 29.2496248 9.78579565 33.46986868 9.79516602 37.69018555 C9.80622934 42.04832518 9.84062683 46.40595406 9.88033772 50.76391315 C9.90648983 54.1156865 9.91485659 57.46733793 9.91844749 60.81920433 C9.92331739 62.42556392 9.93494294 64.03191792 9.95348549 65.63817787 C9.97784761 67.88850929 9.97691803 70.13751639 9.9699707 72.38793945 C9.97877007 74.30749199 9.97877007 74.30749199 9.98774719 76.26582336 C9.41645004 80.20041912 8.27294523 81.83279301 5.5 84.625 C2.61138291 86.06930855 0.70352299 86.00188506 -2.5 85.625 C-5.3125 83.1875 -5.3125 83.1875 -7.5 80.625 C-7.83 80.295 -8.16 79.965 -8.5 79.625 C-8.6207721 77.3875071 -8.6702976 75.14615383 -8.69287109 72.90551758 C-8.70513733 71.8517392 -8.70513733 71.8517392 -8.71765137 70.77667236 C-8.74255563 68.44096742 -8.75903745 66.10532362 -8.7734375 63.76953125 C-8.77876118 62.97256018 -8.78408485 62.1755891 -8.78956985 61.35446739 C-8.81632818 57.13304988 -8.83569108 52.91166217 -8.85009766 48.69018555 C-8.86671763 44.33311801 -8.91146449 39.97681102 -8.9624691 35.6200304 C-8.99616897 32.2682155 -9.00767826 28.91658005 -9.01332474 25.56461143 C-9.02003386 23.95905458 -9.03524732 22.3535094 -9.05921555 20.74811745 C-9.09092031 18.49527335 -9.09089682 16.2444647 -9.08349609 13.99145508 C-9.09158295 12.71095779 -9.0996698 11.43046051 -9.10800171 10.11116028 C-8.15461932 4.6446562 -5.73966748 1.02494062 0 0 Z " fill="#0C0A00" transform="translate(255.5,59.375)"/>
<path d="M0 0 C6.75504296 -0.56292025 11.26491748 0.38248641 17 4 C17.886875 4.556875 18.77375 5.11375 19.6875 5.6875 C24.12467696 10.12467696 27.84981972 16.46772406 28.12025452 22.82841492 C28.1169236 24.55049919 28.1169236 24.55049919 28.11352539 26.30737305 C28.11344986 27.60849533 28.11337433 28.90961761 28.11329651 30.25016785 C28.10818985 31.6706852 28.10297385 33.09120217 28.09765625 34.51171875 C28.09579091 35.96474662 28.09436756 37.41777511 28.09336853 38.87080383 C28.08955246 42.69306172 28.07972993 46.51528155 28.06866455 50.33752441 C28.05843087 54.23868291 28.05386671 58.13984757 28.04882812 62.04101562 C28.03810685 69.69402977 28.02051741 77.3470047 28 85 C22.39 85 16.78 85 11 85 C10.93941406 82.72480469 10.87882812 80.44960938 10.81640625 78.10546875 C10.75459275 75.9012528 10.69121506 73.697087 10.62768555 71.49291992 C10.58438167 69.96138982 10.54270333 68.42981285 10.50268555 66.89819336 C10.44487268 64.69630818 10.38121031 62.49465789 10.31640625 60.29296875 C10.29969376 59.60849167 10.28298126 58.92401459 10.26576233 58.21879578 C10.1726445 55.22879896 9.95312563 52.85937689 9 50 C9.31377923 48.66192994 9.65064118 47.32922432 10 46 C10.25346255 41.5866794 10.23129164 37.16985007 10.25 32.75 C10.270625 31.54730469 10.29125 30.34460938 10.3125 29.10546875 C10.35238177 20.02239576 9.21844159 13.67026174 3.875 6.125 C1.03478261 2.06956522 1.03478261 2.06956522 0 0 Z " fill="#4328A1" transform="translate(467,333)"/>
<path d="M0 0 C6.60512616 -0.48037281 11.27203168 0.62027923 17 4 C19.8125 6.4375 19.8125 6.4375 22 9 C22.721875 9.825 23.44375 10.65 24.1875 11.5 C27.55760023 16.14841411 28.24885012 19.92569377 28.22705078 25.6262207 C28.22734283 26.27068649 28.22763489 26.91515228 28.22793579 27.57914734 C28.22655005 29.69483221 28.21102507 31.81015842 28.1953125 33.92578125 C28.19157967 35.39836942 28.18873397 36.87096009 28.18673706 38.34355164 C28.17912183 42.20857672 28.15949163 46.07345013 28.1373291 49.93841553 C28.11682508 53.88665719 28.10772562 57.8349235 28.09765625 61.78320312 C28.07624358 69.52221238 28.04107882 77.26106556 28 85 C22.39 85 16.78 85 11 85 C10.85540223 78.31466071 10.7130878 71.62927781 10.57275391 64.94384766 C10.5248562 62.67658219 10.47636906 60.40932909 10.42724609 58.14208984 C10.35613844 54.85517468 10.28685905 51.56822862 10.21875 48.28125 C10.18525955 46.68054405 10.18525955 46.68054405 10.15109253 45.04750061 C10.0076751 37.72360577 9.9848708 30.41007138 10.09228516 23.08569336 C9.86276163 15.41122823 6.66007878 9.99070812 2.3046875 3.84765625 C1 2 1 2 0 0 Z " fill="#C81B11" transform="translate(356,367)"/>
<path d="M0 0 C0.70470932 -0.00540298 1.40941864 -0.01080597 2.13548279 -0.01637268 C4.45468723 -0.02883499 6.77264408 -0.01238717 9.09179688 0.00561523 C10.70935125 0.00546019 12.32690599 0.00397025 13.94445801 0.00120544 C17.33048983 -0.00017742 20.7160975 0.01236023 24.10205078 0.03515625 C28.43655016 0.06354084 32.77034503 0.0608022 37.10489655 0.04806614 C40.44384755 0.04110234 43.78263647 0.04890619 47.12156677 0.06132317 C48.7195117 0.06583088 50.31747406 0.06618041 51.91542053 0.06225777 C54.15100612 0.05933858 56.3856299 0.07588479 58.62109375 0.09765625 C59.89174683 0.10305923 61.1623999 0.10846222 62.47155762 0.11402893 C66.08319643 0.53336551 67.94051951 1.30895123 70.81054688 3.50170898 C72.81054688 6.50170898 72.81054688 6.50170898 72.74804688 9.93920898 C71.60522356 14.28193758 70.57163991 15.15389313 66.81054688 17.50170898 C63.39562988 18.02310181 63.39562988 18.02310181 59.4375 18.05102539 C58.35117531 18.06635818 58.35117531 18.06635818 57.24290466 18.08200073 C54.85886202 18.10970766 52.47598095 18.10788711 50.09179688 18.10327148 C48.42939832 18.11104916 46.76700373 18.11971928 45.10461426 18.12924194 C41.62446187 18.14414709 38.14471536 18.14359768 34.66455078 18.13305664 C30.20855566 18.12145752 25.75422062 18.15535608 21.29850006 18.20174599 C17.86686524 18.23123182 14.43563005 18.23296312 11.00389099 18.22672653 C9.36124885 18.22775208 7.71858407 18.23821157 6.07606506 18.25835037 C3.77748109 18.28307937 1.48212739 18.26951101 -0.81640625 18.24633789 C-2.12258911 18.24759674 -3.42877197 18.24885559 -4.77453613 18.25015259 C-9.54285169 17.20508611 -10.57544403 15.56258902 -13.18945312 11.50170898 C-13.31445312 7.87670898 -13.31445312 7.87670898 -12.18945312 4.50170898 C-8.28590445 0.49029319 -5.50445316 0.00071984 0 0 Z " fill="#030000" transform="translate(226.189453125,417.498291015625)"/>
<path d="M0 0 C0.70427124 -0.0049649 1.40854248 -0.00992981 2.13415527 -0.01504517 C4.46924815 -0.02967629 6.80427307 -0.03647087 9.1394043 -0.04199219 C10.76124575 -0.04774353 12.38308718 -0.05350127 14.00492859 -0.05926514 C17.40872515 -0.06977829 20.81249807 -0.07561867 24.21630859 -0.07910156 C28.57435485 -0.08458236 32.93208805 -0.1086 37.2900362 -0.13707352 C40.64180915 -0.15571469 43.99350697 -0.16090631 47.34532738 -0.16243744 C48.95166927 -0.16546193 50.55800991 -0.17348364 52.16430092 -0.18662262 C54.41446209 -0.20371202 56.66386243 -0.20179603 58.9140625 -0.1953125 C60.19376419 -0.19895813 61.47346588 -0.20260376 62.79194641 -0.20635986 C66.42720292 0.19133585 68.26861972 0.95187962 71.15112305 3.16113281 C73.15112305 6.16113281 73.15112305 6.16113281 73.08862305 9.59863281 C71.94643145 13.93896087 70.90863018 14.81348264 67.15112305 17.16113281 C63.77416992 17.66906738 63.77416992 17.66906738 59.86987305 17.67871094 C58.79817871 17.68922485 58.79817871 17.68922485 57.70483398 17.69995117 C55.35319662 17.71749505 53.00277173 17.70592241 50.65112305 17.69238281 C49.01114675 17.69507879 47.37117201 17.6989621 45.73120117 17.70397949 C42.29810329 17.70986961 38.86542237 17.70132762 35.43237305 17.68261719 C31.03721934 17.6598275 26.64304269 17.67295325 22.2479248 17.69690704 C18.86263704 17.71137842 15.47757997 17.70675298 12.09228516 17.69639587 C10.47200402 17.69373227 8.85170178 17.69698547 7.23144531 17.70631409 C4.96452558 17.71650233 2.69917615 17.70094953 0.43237305 17.67871094 C-0.85604492 17.67552856 -2.14446289 17.67234619 -3.47192383 17.66906738 C-7.43413245 17.07310331 -9.08379496 16.01941802 -11.84887695 13.16113281 C-12.91137695 9.72363281 -12.91137695 9.72363281 -12.84887695 6.16113281 C-9.17381828 0.3317294 -6.62733213 0.03542701 0 0 Z " fill="#010000" transform="translate(225.848876953125,383.8388671875)"/>
<path d="M0 0 C17.36774598 -0.11684559 34.73536914 -0.20499399 52.10341835 -0.25906086 C60.16787487 -0.2848333 68.23208704 -0.31996515 76.29638672 -0.37719727 C83.32594383 -0.42706202 90.35532397 -0.45929801 97.38505304 -0.47044247 C101.10671357 -0.47695617 104.82786786 -0.49224415 108.549366 -0.52865028 C112.70582707 -0.56898101 116.86141027 -0.56994748 121.01806641 -0.56762695 C122.86520737 -0.59459152 122.86520737 -0.59459152 124.74966431 -0.62210083 C134.05419937 -0.56579146 134.05419937 -0.56579146 137.67126465 2.21136475 C139.93166609 4.91817089 141.15383964 6.85889137 142.24169922 10.18579102 C142.58159882 11.19356094 142.92149841 12.20133087 143.271698 13.23963928 C143.7830278 14.85545143 143.7830278 14.85545143 144.3046875 16.50390625 C144.67353058 17.61934311 145.04237366 18.73477997 145.4223938 19.88401794 C146.19600629 22.23536596 146.96029808 24.58979855 147.71582031 26.94702148 C148.87400012 30.55938137 150.05931849 34.16190944 151.25 37.76367188 C151.99898842 40.05156258 152.74643765 42.33995787 153.4921875 44.62890625 C153.84521942 45.70813858 154.19825134 46.78737091 154.5619812 47.89930725 C155.04346115 49.4062339 155.04346115 49.4062339 155.53466797 50.94360352 C155.81857391 51.82564957 156.10247986 52.70769562 156.39498901 53.61647034 C157 56 157 56 157 60 C97.6 60 38.2 60 -23 60 C-23 59.67 -23 59.34 -23 59 C30.79 59 84.58 59 140 59 C130.76787477 30.40857809 130.76787477 30.40857809 121 2 C81.07 1.67 41.14 1.34 0 1 C0 0.67 0 0.34 0 0 Z " fill="#007CC1" transform="translate(189,290)"/>
<path d="M0 0 C2.039781 -0.13618716 4.08224263 -0.23252628 6.125 -0.3125 C7.26195312 -0.37050781 8.39890625 -0.42851562 9.5703125 -0.48828125 C13.90123718 0.12830826 16.2753828 1.68437736 19 5 C20.83028209 8.7095099 22.05837218 12.56552554 23.3046875 16.50390625 C23.67353058 17.61934311 24.04237366 18.73477997 24.4223938 19.88401794 C25.19600629 22.23536596 25.96029808 24.58979855 26.71582031 26.94702148 C27.87400012 30.55938137 29.05931849 34.16190944 30.25 37.76367188 C30.99898842 40.05156258 31.74643765 42.33995787 32.4921875 44.62890625 C33.02173538 46.24775475 33.02173538 46.24775475 33.5619812 47.89930725 C33.88296783 48.90392502 34.20395447 49.90854279 34.53466797 50.94360352 C34.81857391 51.82564957 35.10247986 52.70769562 35.39498901 53.61647034 C36 56 36 56 36 60 C1.68 60 -32.64 60 -68 60 C-68 59.67 -68 59.34 -68 59 C-24.935 58.505 -24.935 58.505 19 58 C13.12285986 40.40814186 13.12285986 40.40814186 7.24243164 22.81738281 C6.50655389 20.61267002 5.77078778 18.40791996 5.03515625 16.203125 C4.65161987 15.05763184 4.2680835 13.91213867 3.8729248 12.73193359 C3.32493225 11.08813721 3.32493225 11.08813721 2.76586914 9.41113281 C2.44832169 8.46071106 2.13077423 7.51028931 1.80360413 6.53106689 C1.11582385 4.3648039 0.51859971 2.21185263 0 0 Z " fill="#0075B9" transform="translate(421,256)"/>
<path d="M0 0 C11.22 0 22.44 0 34 0 C34 8.58 34 17.16 34 26 C22.78 26 11.56 26 0 26 C0 17.42 0 8.84 0 0 Z " fill="#35454E" transform="translate(333,469)"/>
<path d="M0 0 C11.22 0 22.44 0 34 0 C34 8.58 34 17.16 34 26 C22.78 26 11.56 26 0 26 C0 17.42 0 8.84 0 0 Z " fill="#35454E" transform="translate(145,469)"/>
<path d="M0 0 C11.22 0 22.44 0 34 0 C34 8.58 34 17.16 34 26 C22.78 26 11.56 26 0 26 C0 17.42 0 8.84 0 0 Z " fill="#34454E" transform="translate(444,435)"/>
<path d="M0 0 C11.22 0 22.44 0 34 0 C34 8.58 34 17.16 34 26 C22.78 26 11.56 26 0 26 C0 17.42 0 8.84 0 0 Z " fill="#34454E" transform="translate(34,435)"/>
<path d="M0 0 C1.16015625 0.13921875 2.3203125 0.2784375 3.515625 0.421875 C5.27132812 0.61523438 5.27132812 0.61523438 7.0625 0.8125 C7.95453125 0.93109375 8.8465625 1.0496875 9.765625 1.171875 C8.17894033 5.19906568 6.45110601 9.14284908 4.66796875 13.0859375 C3.67615664 15.29624919 3.67615664 15.29624919 2.765625 18.171875 C0.46310017 19.24090439 -1.8715776 20.24363317 -4.234375 21.171875 C-5.81335333 22.75085333 -5.47981009 24.36550072 -5.546875 26.546875 C-5.57703799 30.25028768 -5.57703799 30.25028768 -3.421875 33.171875 C-1.13534094 34.26423261 -1.13534094 34.26423261 1.765625 35.171875 C1.765625 40.781875 1.765625 46.391875 1.765625 52.171875 C-3.844375 52.171875 -9.454375 52.171875 -15.234375 52.171875 C-15.32678841 47.63591671 -15.40623669 43.10329242 -15.45410156 38.56713867 C-15.47407621 37.02796289 -15.50126597 35.48886162 -15.53613281 33.94995117 C-15.89687214 17.60527661 -15.89687214 17.60527661 -11.234375 10.171875 C-10.574375 9.07875 -9.914375 7.985625 -9.234375 6.859375 C-4.29976276 0.22848981 -4.29976276 0.22848981 0 0 Z " fill="#F47900" transform="translate(109.234375,365.828125)"/>
<path d="M0 0 C1.60294922 0.04060547 1.60294922 0.04060547 3.23828125 0.08203125 C4.04652344 0.11683594 4.85476562 0.15164063 5.6875 0.1875 C4.0375 3.4875 2.3875 6.7875 0.6875 10.1875 C-1.9525 18.1075 -4.5925 26.0275 -7.3125 34.1875 C-41.6325 34.1875 -75.9525 34.1875 -111.3125 34.1875 C-111.3125 33.8575 -111.3125 33.5275 -111.3125 33.1875 C-82.2725 33.1875 -53.2325 33.1875 -23.3125 33.1875 C-22.9825 30.8775 -22.6525 28.5675 -22.3125 26.1875 C-21.55854592 23.2745814 -20.56128033 20.46244412 -19.5625 17.625 C-19.32273437 16.89603516 -19.08296875 16.16707031 -18.8359375 15.41601562 C-16.72587244 9.37405099 -14.04661848 5.29440552 -8.89453125 1.32421875 C-5.74554503 -0.06209742 -3.42615821 -0.11295027 0 0 Z " fill="#0077BC" transform="translate(166.3125,281.8125)"/>
<path d="M0 0 C5.61 0 11.22 0 17 0 C15.35 5.61 13.7 11.22 12 17 C-0.54 17 -13.08 17 -26 17 C-26 16.67 -26 16.34 -26 16 C-15.605 15.505 -15.605 15.505 -5 15 C-3.35 10.05 -1.7 5.1 0 0 Z " fill="#F27A00" transform="translate(136,333)"/>
<path d="M0 0 C2.08304538 -0.05418326 4.16649768 -0.09287551 6.25 -0.125 C7.99023438 -0.15980469 7.99023438 -0.15980469 9.765625 -0.1953125 C12.89676553 -0.00623397 14.49658759 0.16378407 17 2 C18.23046875 3.953125 18.23046875 3.953125 19.1875 6.25 C19.51105469 6.99765625 19.83460938 7.7453125 20.16796875 8.515625 C21 11 21 11 22 17 C16.72 17 11.44 17 6 17 C3.68702184 11.37175314 1.53573163 5.88697124 0 0 Z " fill="#0076BD" transform="translate(199,256)"/>
<path d="M0 0 C3.80470451 0.7133821 5.41196019 1.67868421 8 4.5625 C9.0625 8 9.0625 8 9 11.5625 C7.23358828 14.36439446 5.96950178 16.07774911 3 17.5625 C-1.0130324 18.09757099 -2.53928033 17.89301628 -5.875 15.5 C-8 12.5625 -8 12.5625 -8.625 9.0625 C-7.67703424 3.75389177 -5.38444917 1.00958422 0 0 Z " fill="#F6D200" transform="translate(452,366.4375)"/>
<path d="M0 0 C2.0625 0.6015625 2.0625 0.6015625 4.125 2.2265625 C5.73809691 6.31307468 5.73809691 9.89005032 4.125 13.9765625 C1.29684122 16.20480882 -1.14359686 16.64634366 -4.703125 16.890625 C-7.32481561 16.55145524 -8.25403566 16.00146604 -10.0625 14.1015625 C-11.9375 10.6015625 -11.9375 10.6015625 -12 6.9765625 C-9.82007761 0.05210315 -6.86408926 -1.15154129 0 0 Z " fill="#F5E000" transform="translate(62.9375,367.3984375)"/>
<path d="M0 0 C3.80470451 0.7133821 5.41196019 1.67868421 8 4.5625 C9.0625 8 9.0625 8 9 11.5625 C7.23358828 14.36439446 5.96950178 16.07774911 3 17.5625 C-1.0130324 18.09757099 -2.53928033 17.89301628 -5.875 15.5 C-8 12.5625 -8 12.5625 -8.625 9.0625 C-7.67703424 3.75389177 -5.38444917 1.00958422 0 0 Z " fill="#F6E100" transform="translate(341,400.4375)"/>
<path d="M0 0 C2.4375 1.625 2.4375 1.625 4 4 C4.72125695 8.40768137 4.52001338 10.25937488 1.9375 13.9375 C-1 16 -1 16 -4.5 16.6875 C-8 16 -8 16 -11 13.4375 C-13 10 -13 10 -13.125 6.375 C-10.80869361 -0.57391916 -6.85196698 -1.99329948 0 0 Z " fill="#F7E100" transform="translate(175,402)"/>
<path d="M0 0 C4.14182881 0.862881 5.56226471 2.18349135 8 5.625 C8.75517074 8.70049372 8.51878636 10.35664594 8 13.625 C5.28707652 16.9133921 3.65183071 17.53351499 -0.5625 18.125 C-4 17.625 -4 17.625 -6.4375 16.125 C-8.6077527 12.65259567 -8.89291241 9.54605015 -8 5.625 C-5.56226471 2.18349135 -4.14182881 0.862881 0 0 Z " fill="#070600" transform="translate(256,161.375)"/>
</svg>
