<?xml version="1.0" encoding="UTF-8"?>
<svg version="1.1" xmlns="http://www.w3.org/2000/svg" width="512" height="512">
<path d="M0 0 C7.47282756 3.80518213 11.53323649 12.53180746 15.78515625 19.41015625 C16.95563984 21.27170893 18.1275993 23.13233419 19.30078125 24.9921875 C24.86527362 33.83510898 30.36185506 42.72011308 35.85546875 51.60717773 C37.99721464 55.07102492 40.14188962 58.53304936 42.28808594 61.99414062 C43.23553839 63.52316695 44.18167097 65.05301259 45.12597656 66.58398438 C51.37137216 76.69557725 57.90314961 86.5988466 64.52856445 96.46386719 C102.95161134 153.68350896 102.95161134 153.68350896 102.97265625 188.66015625 C102.98490234 189.71589844 102.99714844 190.77164063 103.00976562 191.859375 C103.02329586 199.22884558 102.2156891 206.18373647 100.78515625 213.41015625 C101.52693115 213.85512451 102.26870605 214.30009277 103.03295898 214.75854492 C109.12633519 218.44424195 114.38955644 222.49737719 119.58203125 227.36328125 C121.86229806 229.54264949 121.86229806 229.54264949 124.84765625 231.78515625 C129.40408173 235.85685562 133.04967864 240.5895487 136.78515625 245.41015625 C137.37296875 246.15910156 137.96078125 246.90804687 138.56640625 247.6796875 C159.04008275 275.25154902 166.53774073 309.84173283 162.01147461 343.65283203 C156.75909869 376.46649396 137.89558269 408.35537223 110.90771484 427.90209961 C91.10117501 441.61562297 67.09833371 451.51828531 42.78515625 452.41015625 C41.78097656 452.45011719 40.77679688 452.49007813 39.7421875 452.53125 C24.75679472 452.82440498 6.48975254 452.2624544 -7.21484375 445.41015625 C-7.45847656 445.96058594 -7.70210938 446.51101563 -7.953125 447.078125 C-12.11299968 454.76680978 -18.84542814 461.47800029 -25.21484375 467.41015625 C-25.74722656 467.92449219 -26.27960938 468.43882812 -26.828125 468.96875 C-46.78057198 487.41702138 -71.61310826 499.56089697 -97.58984375 506.78515625 C-98.87109131 507.14323364 -98.87109131 507.14323364 -100.17822266 507.50854492 C-113.43493217 511.00413922 -126.58446876 511.81809459 -140.21484375 511.78515625 C-141.02577484 511.78494476 -141.83670593 511.78473328 -142.67221069 511.78451538 C-155.85447214 511.75030017 -168.42696914 510.84158766 -181.21484375 507.41015625 C-181.95412109 507.21228516 -182.69339844 507.01441406 -183.45507812 506.81054688 C-188.11192623 505.5223051 -192.659717 504.01990017 -197.21484375 502.41015625 C-198.76558594 501.89388672 -198.76558594 501.89388672 -200.34765625 501.3671875 C-224.20782888 492.91543837 -244.64584563 478.44149643 -262.21484375 460.41015625 C-262.76011719 459.92160156 -263.30539062 459.43304688 -263.8671875 458.9296875 C-289.77884573 434.92563601 -305.85567564 394.4160285 -307.33911133 359.48388672 C-308.74774165 300.94940925 -282.68061531 258.60465189 -250.97558594 211.57177734 C-237.88298164 192.13965351 -225.45172016 172.27458069 -213.06933594 152.38525391 C-211.21830113 149.4157028 -209.36204759 146.44948375 -207.50390625 143.484375 C-200.96633006 133.04962843 -194.4698202 122.59142088 -188.02734375 112.09765625 C-181.90954827 102.13390414 -175.72131779 92.21913949 -169.44433594 82.35498047 C-168.31577376 80.56980844 -167.20292393 78.77621967 -166.09765625 76.9765625 C-161.30814112 69.23728162 -156.21612478 62.41058326 -147.21484375 59.41015625 C-138.42307466 58.54700921 -131.46954491 59.16394156 -124.21484375 64.41015625 C-118.49695608 70.57024883 -114.2103447 77.96304744 -109.83984375 85.09765625 C-108.52947733 87.21926378 -107.21828213 89.34035966 -105.90625 91.4609375 C-104.96289795 92.98775146 -104.96289795 92.98775146 -104.00048828 94.54541016 C-100.96543639 99.41460606 -97.81857956 104.20892082 -94.65625 108.99609375 C-93.21484375 111.41015625 -93.21484375 111.41015625 -93.21484375 113.41015625 C-92.55484375 113.41015625 -91.89484375 113.41015625 -91.21484375 113.41015625 C-90.94333496 112.67619629 -90.67182617 111.94223633 -90.39208984 111.18603516 C-89.26545165 108.52948678 -88.0008842 106.37440195 -86.37890625 103.99609375 C-85.53368408 102.74578369 -85.53368408 102.74578369 -84.67138672 101.47021484 C-84.06697754 100.58414551 -83.46256836 99.69807617 -82.83984375 98.78515625 C-76.60428212 89.54009794 -70.58294083 80.18428141 -64.66943359 70.73095703 C-62.74622732 67.66247787 -60.80890416 64.60303616 -58.87158203 61.54345703 C-54.43826399 54.54061201 -50.02924238 47.52292138 -45.63989258 40.49243164 C-44.36124246 38.445132 -43.08114194 36.39873747 -41.79956055 34.35327148 C-38.7859512 29.54181207 -35.7892236 24.72223094 -32.83984375 19.87109375 C-32.04610352 18.57945313 -32.04610352 18.57945313 -31.23632812 17.26171875 C-30.2592229 15.67125735 -29.29097072 14.07530382 -28.33398438 12.47265625 C-21.62798571 1.62558104 -13.01620513 -3.46639678 0 0 Z " fill="#000001" transform="translate(328.21484375,0.58984375)"/>
<path d="M0 0 C5.69711356 2.12434743 7.67799308 6.32409816 10.6875 11.375 C11.58325974 12.85681532 12.47909922 14.33858245 13.375 15.8203125 C14.89333743 18.34157227 16.40654997 20.86557658 17.91040039 23.39550781 C23.93384884 33.52777835 30.14821174 43.56606761 36.6875 53.375 C36.39257637 58.16080623 34.71311664 61.58463215 32.4375 65.75 C20.01955859 89.45697905 17.9271944 117.83939981 25.6875 143.375 C30.70647172 158.75908309 38.55329475 173.63511617 50.25 185 C51.4565625 186.175625 51.4565625 186.175625 52.6875 187.375 C52.6875 188.035 52.6875 188.695 52.6875 189.375 C53.6465625 189.74625 53.6465625 189.74625 54.625 190.125 C56.6875 191.375 56.6875 191.375 57.484375 193.01171875 C57.78611363 196.52233162 56.34168477 199.27107738 55 202.4375 C42.84172813 233.6423116 44.70008918 269.45653609 57.68261719 300.13183594 C68.50430773 324.28870978 86.39051924 343.40320906 108.6875 357.375 C109.8014917 358.07447754 109.8014917 358.07447754 110.93798828 358.78808594 C112.85247427 359.98700597 114.76892557 361.18263708 116.6875 362.375 C98.05522795 389.0177216 68.95946301 404.08879991 38.6875 413.375 C37.6253125 413.7153125 36.563125 414.055625 35.46875 414.40625 C0.626692 424.90084578 -39.38424722 418.03608149 -71.1875 401.5625 C-85.55767039 393.83660194 -97.9262457 384.06899091 -109.3125 372.375 C-109.79589844 371.93671875 -110.27929688 371.4984375 -110.77734375 371.046875 C-128.57167002 354.46674982 -140.5632991 329.73286453 -146.3125 306.375 C-146.61027344 305.19808594 -146.90804687 304.02117187 -147.21484375 302.80859375 C-151.98928419 281.28083963 -151.81224894 254.49222998 -145.3125 233.375 C-145.07112305 232.58818848 -144.82974609 231.80137695 -144.58105469 230.99072266 C-140.79499427 219.09201581 -135.53549495 208.17030482 -129.3125 197.375 C-128.81314941 196.50262695 -128.31379883 195.63025391 -127.79931641 194.73144531 C-119.28751283 179.96058618 -110.02306323 165.76321108 -100.5168457 151.62182617 C-92.88532621 140.26882757 -85.45652995 128.80222374 -78.13427734 117.24658203 C-76.32092615 114.38828175 -74.49964561 111.53519511 -72.67578125 108.68359375 C-66.46557671 98.96736856 -60.324151 89.2124433 -54.27001953 79.39819336 C-50.20658285 72.81116795 -46.10910003 66.24612212 -42 59.6875 C-37.33722238 52.24411696 -32.71019642 44.7802304 -28.11938477 37.29223633 C-22.82544672 28.65793335 -17.52659481 20.0280117 -12.0625 11.5 C-11.63291992 10.82267822 -11.20333984 10.14535645 -10.76074219 9.44750977 C-5.01903806 0.56819299 -5.01903806 0.56819299 0 0 Z " fill="#01A8F3" transform="translate(188.3125,76.625)"/>
<path d="M0 0 C10.74054636 8.4867414 20.82336294 18.2900907 28.07421875 29.9453125 C28.57050781 30.68523437 29.06679688 31.42515625 29.578125 32.1875 C44.99273623 56.09423387 48.45869082 84.86703064 44.01171875 112.6328125 C39.56645142 131.88185381 30.43755294 150.36913444 17.07421875 164.9453125 C16.23117187 165.86957031 15.388125 166.79382813 14.51953125 167.74609375 C8.03631504 174.53937682 1.06435951 180.03109259 -6.92578125 184.9453125 C-7.49248535 185.29722656 -8.05918945 185.64914062 -8.64306641 186.01171875 C-32.56798944 200.5694603 -63.82739124 205.38206747 -91.05078125 198.8828125 C-120.80286954 191.12200834 -145.81276782 172.2110223 -161.77539062 145.95263672 C-167.49788252 135.96742271 -171.26170599 125.11033144 -173.92578125 113.9453125 C-174.15136719 113.05585938 -174.37695312 112.16640625 -174.609375 111.25 C-180.57532263 83.02489606 -173.49852735 54.49210114 -159.01953125 30.15625 C-155.69757465 25.06175686 -151.99919302 20.45540492 -147.92578125 15.9453125 C-146.78689453 14.68267578 -146.78689453 14.68267578 -145.625 13.39453125 C-107.98199182 -26.21996017 -44.48488352 -31.24038549 0 0 Z " fill="#F24234" transform="translate(427.92578125,234.0546875)"/>
<path d="M0 0 C2.37640005 0.37480768 3.66493991 0.62805314 5.30175781 2.44506836 C5.68170898 3.07034424 6.06166016 3.69562012 6.453125 4.33984375 C6.89914062 5.05978516 7.34515625 5.77972656 7.8046875 6.52148438 C8.28164063 7.31876953 8.75859375 8.11605469 9.25 8.9375 C9.76304687 9.77216797 10.27609375 10.60683594 10.8046875 11.46679688 C11.93555467 13.30914564 13.06092767 15.15487476 14.18164062 17.00341797 C16.75103498 21.23767499 19.35134049 25.45270673 21.94897461 29.66967773 C23.32345957 31.90147744 24.69665648 34.1340709 26.06860352 36.36743164 C37.49929961 54.97182787 49.16865368 73.43861659 61.40234375 91.52734375 C68.51744109 102.06026958 75.56696461 112.57869376 81.875 123.625 C82.34429932 124.44669678 82.81359863 125.26839355 83.29711914 126.11499023 C93.40734023 144.20194577 99.05095778 165.55267968 94.48510742 186.34472656 C94.32502197 186.8909668 94.16493652 187.43720703 94 188 C93.37996094 187.82984375 92.75992188 187.6596875 92.12109375 187.484375 C90.21813626 186.9636239 88.31440988 186.44567881 86.41015625 185.9296875 C84.01946932 185.27793093 81.63166379 184.6155559 79.24609375 183.9453125 C77.9557798 183.58835857 76.6654157 183.23158591 75.375 182.875 C74.18648437 182.54242188 72.99796875 182.20984375 71.7734375 181.8671875 C39.54691282 174.46109177 5.02406675 181.32791265 -23.17138672 197.84228516 C-26.91088777 200.20980371 -30.38169834 202.94376464 -33.78955078 205.76269531 C-36.45304776 207.9478182 -38.52984283 209.54449011 -42 210 C-53.02521561 197.38802879 -58.81724714 183.41207258 -58.3359375 166.4921875 C-57.34761979 156.21828015 -53.06868912 147.6415547 -47.99829102 138.82299805 C-45.08950114 133.75343214 -45.08950114 133.75343214 -45 128 C-46.65560867 125.4476033 -47.89661635 124.24419146 -50.90625 123.578125 C-53.08393208 123.43186277 -54.87273145 123.51011035 -57 124 C-59.33743577 125.87184813 -59.33743577 125.87184813 -61 129 C-61.69029297 130.04027344 -61.69029297 130.04027344 -62.39453125 131.1015625 C-66.63573347 137.69421608 -69.50073201 144.58707684 -72 152 C-72.24878906 152.72445312 -72.49757812 153.44890625 -72.75390625 154.1953125 C-75.63655695 164.47609472 -75.25577745 177.87715174 -72 188 C-71.75507813 188.89332031 -71.51015625 189.78664062 -71.2578125 190.70703125 C-67.76716899 202.49181441 -61.68859341 213.25710288 -53 222 C-54.54841575 225.34708051 -56.49105864 228.24667512 -58.625 231.25 C-59.25664062 232.14203125 -59.88828125 233.0340625 -60.5390625 233.953125 C-61.26222656 234.96632812 -61.26222656 234.96632812 -62 236 C-74.35935175 230.66797878 -81.91936755 213.4934797 -86.6796875 201.80078125 C-94.58424966 180.06035883 -94.08656529 156.38031229 -84.3125 135.296875 C-76.57056888 119.19018201 -66.98377248 104.2016785 -56.99029541 89.42053223 C-47.219222 74.95995496 -37.68912086 60.39454517 -28.55566406 45.52148438 C-26.07038447 41.49324087 -23.53498087 37.49708101 -21 33.5 C-13.95012471 22.36459457 -6.97668163 11.18135251 0 0 Z " fill="#01A8F2" transform="translate(318,18)"/>
<path d="M0 0 C5.69711356 2.12434743 7.67799308 6.32409816 10.6875 11.375 C11.58325974 12.85681532 12.47909922 14.33858245 13.375 15.8203125 C14.89333743 18.34157227 16.40654997 20.86557658 17.91040039 23.39550781 C23.93384884 33.52777835 30.14821174 43.56606761 36.6875 53.375 C36.39257637 58.16080623 34.71311664 61.58463215 32.4375 65.75 C20.01955859 89.45697905 17.9271944 117.83939981 25.6875 143.375 C30.70647172 158.75908309 38.55329475 173.63511617 50.25 185 C51.054375 185.78375 51.85875 186.5675 52.6875 187.375 C52.6875 188.035 52.6875 188.695 52.6875 189.375 C53.6465625 189.74625 53.6465625 189.74625 54.625 190.125 C56.6875 191.375 56.6875 191.375 57.484375 193.01171875 C57.78611363 196.52233162 56.34168477 199.27107738 55 202.4375 C42.84172813 233.6423116 44.70008918 269.45653609 57.68261719 300.13183594 C68.50430773 324.28870978 86.39051924 343.40320906 108.6875 357.375 C109.8014917 358.07447754 109.8014917 358.07447754 110.93798828 358.78808594 C112.85247427 359.98700597 114.76892557 361.18263708 116.6875 362.375 C95.73219181 392.3394853 59.2700259 410.48673246 24 417.0625 C20.19521485 417.421442 16.50780751 417.44202294 12.6875 417.375 C15.54707196 415.4686187 18.38108395 414.19079458 21.53833008 412.86376953 C48.97293139 401.25472812 69.85865752 382.90763716 87.6875 359.375 C87.19983154 359.11396484 86.71216309 358.85292969 86.2097168 358.58398438 C72.36962878 351.13827456 60.17909656 343.19178778 48.6875 332.375 C47.79998047 331.58416016 47.79998047 331.58416016 46.89453125 330.77734375 C26.95848232 312.26191588 14.95173903 283.16978454 13.5234375 256.28710938 C12.72645021 233.82535087 15.89664992 214.77690392 26.55078125 194.703125 C27.83375012 192.50726531 27.83375012 192.50726531 27.6875 190.375 C26.08391543 189.01120378 24.42714875 187.70974041 22.75 186.4375 C5.17881148 172.30855456 -7.38817675 149.96244815 -10.7265625 127.6015625 C-12.74678833 102.68544388 -9.54094466 80.64012754 4.34375 59.4609375 C6.02211825 56.46548087 6.02211825 56.46548087 4.96191406 53.49755859 C3.74593589 50.51817913 2.39256901 48.02059737 0.640625 45.328125 C-0.2565625 43.9359375 -0.2565625 43.9359375 -1.171875 42.515625 C-1.79578125 41.56171875 -2.4196875 40.6078125 -3.0625 39.625 C-4.28774808 37.73521059 -5.51171527 35.84459006 -6.734375 33.953125 C-7.32927734 33.03337891 -7.92417969 32.11363281 -8.53710938 31.16601562 C-11.21624951 26.95425407 -13.77554694 22.67353081 -16.3125 18.375 C-14.90213629 16.12082895 -13.48456458 13.87177288 -12.0625 11.625 C-11.66675781 10.99078125 -11.27101562 10.3565625 -10.86328125 9.703125 C-5.0618746 0.57304241 -5.0618746 0.57304241 0 0 Z " fill="#0276BB" transform="translate(188.3125,76.625)"/>
<path d="M0 0 C0.83484421 -0.01606293 1.66968842 -0.03212585 2.52983093 -0.04867554 C6.35239668 -0.0933744 10.17479213 -0.13420722 13.99755859 -0.15722656 C16.00809326 -0.1737555 18.01856991 -0.20100492 20.02880859 -0.23925781 C22.93854025 -0.29429838 25.84689645 -0.31594371 28.75708008 -0.33056641 C30.09188667 -0.36457047 30.09188667 -0.36457047 31.45365906 -0.39926147 C37.79522689 -0.37801342 41.91232841 1.17658052 46.83911133 5.19287109 C50.15867577 8.76778665 51.89187693 11.23292423 51.75743103 16.22683716 C51.61598412 18.05491409 51.61598412 18.05491409 51.47167969 19.91992188 C51.39736048 20.91606349 51.39736048 20.91606349 51.32153988 21.93232918 C51.21704567 23.32778609 51.11004852 24.7230576 51.00068283 26.11814117 C50.75152347 29.31758144 50.52718075 32.51877745 50.29833984 35.71972656 C49.84034909 41.94143101 49.37486575 48.16256863 48.90484715 54.38337517 C48.62323693 58.11094796 48.34424584 61.83867722 48.07128906 65.56689453 C47.80361955 69.22212348 47.52946439 72.87681382 47.25083733 76.5312233 C47.14694124 77.90799363 47.04526526 79.28493359 46.94598579 80.66204453 C45.44926351 101.3576409 45.44926351 101.3576409 41.02661133 106.13037109 C40.54579102 106.67564453 40.0649707 107.22091797 39.56958008 107.78271484 C33.72988485 112.54147326 26.22468893 111.56505494 19.11962891 111.56347656 C16.91140706 111.56785169 14.70518353 111.60421396 12.49731445 111.64208984 C11.0813056 111.64795879 9.66528734 111.65192766 8.24926758 111.65380859 C6.33319702 111.66613525 6.33319702 111.66613525 4.37841797 111.67871094 C-0.74125683 110.9759343 -3.72695887 108.54713813 -7.41088867 105.06787109 C-12.0750675 97.40529158 -11.74662004 86.96846863 -12.41479492 78.25146484 C-12.52117227 76.9163901 -12.62802958 75.58135352 -12.7353363 74.24635315 C-12.95819363 71.45885909 -13.17721502 68.67110183 -13.39306641 65.88305664 C-13.71947874 61.66740141 -14.05609472 57.45259526 -14.39331055 53.23779297 C-14.91661822 46.68151801 -15.41432822 40.12363689 -15.90240479 33.56463623 C-16.13034711 30.59126719 -16.3804746 27.62105089 -16.64086914 24.65039062 C-16.76141293 23.13464962 -16.88142991 21.61886655 -17.00073242 20.10302734 C-17.10635498 18.87849854 -17.21197754 17.65396973 -17.32080078 16.39233398 C-17.09412853 11.85715863 -15.50534249 8.65038126 -12.44213867 5.32958984 C-11.85432617 4.85134766 -11.26651367 4.37310547 -10.66088867 3.88037109 C-10.07307617 3.38923828 -9.48526367 2.89810547 -8.87963867 2.39208984 C-5.99576788 0.37993454 -3.41084056 0.05983479 0 0 Z " fill="#040200" transform="translate(345.160888671875,238.80712890625)"/>
<path d="M0 0 C4.49954421 1.12488605 4.49954421 1.12488605 6.453125 4.33984375 C6.89914062 5.05978516 7.34515625 5.77972656 7.8046875 6.52148438 C8.28164063 7.31876953 8.75859375 8.11605469 9.25 8.9375 C9.76304687 9.77216797 10.27609375 10.60683594 10.8046875 11.46679688 C11.93555467 13.30914564 13.06092767 15.15487476 14.18164062 17.00341797 C16.75103498 21.23767499 19.35134049 25.45270673 21.94897461 29.66967773 C23.32345957 31.90147744 24.69665648 34.1340709 26.06860352 36.36743164 C37.49929961 54.97182787 49.16865368 73.43861659 61.40234375 91.52734375 C68.51744109 102.06026958 75.56696461 112.57869376 81.875 123.625 C82.34429932 124.44669678 82.81359863 125.26839355 83.29711914 126.11499023 C93.40734023 144.20194577 99.05095778 165.55267968 94.48510742 186.34472656 C94.32502197 186.8909668 94.16493652 187.43720703 94 188 C93.37996094 187.82984375 92.75992188 187.6596875 92.12109375 187.484375 C90.21813626 186.9636239 88.31440988 186.44567881 86.41015625 185.9296875 C84.01946932 185.27793093 81.63166379 184.6155559 79.24609375 183.9453125 C72.49616589 182.06796215 66.00297004 180.49143649 59 180 C59.66 179.67 60.32 179.34 61 179 C60.21307258 139.10277965 42.83755333 112.50096085 21.11938477 80.14428711 C14.11222546 69.7027568 7.27360108 59.16943808 0.58789062 48.51855469 C-1.1007751 45.84016053 -2.80652871 43.17321128 -4.515625 40.5078125 C-5.08071777 39.62335449 -5.64581055 38.73889648 -6.22802734 37.82763672 C-7.29816179 36.15279541 -8.37124193 34.4798313 -9.44775391 32.80908203 C-9.91616699 32.07286621 -10.38458008 31.33665039 -10.8671875 30.578125 C-11.28081543 29.93262695 -11.69444336 29.28712891 -12.12060547 28.62207031 C-13 27 -13 27 -13 25 C-13.66 24.67 -14.32 24.34 -15 24 C-10.05 16.08 -5.1 8.16 0 0 Z " fill="#0276BB" transform="translate(318,18)"/>
<path d="M0 0 C20.3047331 0.65499139 41.36666823 11.32379022 56 25 C56.53109375 25.4954834 57.0621875 25.9909668 57.609375 26.50146484 C64.6327675 33.11609913 70.8795685 39.76927987 76 48 C76.74443359 49.10988281 76.74443359 49.10988281 77.50390625 50.2421875 C92.91851748 74.14892137 96.38447207 102.92171814 91.9375 130.6875 C87.49223267 149.93654131 78.36333419 168.42382194 65 183 C64.15695312 183.92425781 63.31390625 184.84851563 62.4453125 185.80078125 C55.96209629 192.59406432 48.99014076 198.08578009 41 203 C40.4332959 203.35191406 39.8665918 203.70382812 39.28271484 204.06640625 C26.4029896 211.90340999 12.02258177 216.69041622 -3 218 C0.25840995 215.39327204 3.707814 213.48044827 7.375 211.5 C34.4568006 196.38698883 54.2991039 170.71388729 63 141 C71.84129384 108.39352361 66.74104411 76.23634042 50.40234375 47.03125 C38.36163345 26.35932871 20.6033936 12.42983651 0 1 C0 0.67 0 0.34 0 0 Z " fill="#C32727" transform="translate(380,216)"/>
<path d="M0 0 C3.24967097 0.16797504 5.60086105 0.54567288 8.40234375 2.2265625 C10.47578106 5.68229134 10.35517169 8.82962971 9.90234375 12.7265625 C9.06295156 15.49367646 7.87654042 18.04840883 6.65234375 20.6640625 C-2.77090604 42.56900617 -5.21722971 68.68162737 1.90234375 91.7265625 C2.10633789 92.39896973 2.31033203 93.07137695 2.52050781 93.76416016 C7.88810182 111.12094341 16.31171195 125.88933997 28.96484375 139.0390625 C31.80026979 142.13767169 32.81861531 143.36174571 33.77734375 147.5390625 C32.64640774 151.65890082 31.39957337 153.27106085 27.90234375 155.7265625 C23.71456288 156.24881489 21.66462257 156.25939648 18.1640625 153.8125 C3.56841501 138.44166638 -7.27135451 120.99453846 -14.09765625 100.8515625 C-14.37633545 100.03292725 -14.65501465 99.21429199 -14.94213867 98.37084961 C-18.76045959 86.39037507 -19.54074543 74.2246869 -19.53515625 61.7265625 C-19.53589142 61.005896 -19.53662659 60.28522949 -19.53738403 59.54272461 C-19.49952808 45.34654445 -17.0505343 5.90577166 0 0 Z " fill="#000203" transform="translate(75.09765625,286.2734375)"/>
<path d="M0 0 C1.22493164 -0.03673828 1.22493164 -0.03673828 2.47460938 -0.07421875 C9.33596683 -0.10702205 14.48397993 1.61057245 19.7109375 6.12109375 C20.37996094 6.95833984 20.37996094 6.95833984 21.0625 7.8125 C21.52398437 8.36808594 21.98546875 8.92367188 22.4609375 9.49609375 C25.90171769 14.76684302 26.05297038 19.56471776 26.0625 25.6875 C26.09923828 26.91243164 26.09923828 26.91243164 26.13671875 28.16210938 C26.16952205 35.02346683 24.45192755 40.17147993 19.94140625 45.3984375 C19.38324219 45.84445312 18.82507813 46.29046875 18.25 46.75 C17.69441406 47.21148437 17.13882813 47.67296875 16.56640625 48.1484375 C11.16875336 51.67206122 6.14949657 51.77094704 -0.125 51.8125 C-0.98931641 51.84537109 -1.85363281 51.87824219 -2.74414062 51.91210938 C-9.90834914 51.97158582 -14.69264855 49.88250924 -19.83862305 44.89624023 C-25.09230143 38.97123209 -25.67569143 33.6495089 -25.6875 26.0625 C-25.71199219 25.24587891 -25.73648437 24.42925781 -25.76171875 23.58789062 C-25.79452205 16.72653317 -24.07692755 11.57852007 -19.56640625 6.3515625 C-19.00824219 5.90554688 -18.45007813 5.45953125 -17.875 5 C-17.31941406 4.53851563 -16.76382812 4.07703125 -16.19140625 3.6015625 C-10.92065698 0.16078231 -6.12278224 0.00952962 0 0 Z " fill="#020000" transform="translate(362.3125,366.625)"/>
<path d="M0 0 C10.89 0 21.78 0 33 0 C32.51969996 15.8499013 31.552488 31.54180433 30.10424805 47.32543945 C29.20208987 57.21162782 28.54148604 67.08664026 28 77 C20.74 77 13.48 77 6 77 C5.1484264 73.59370562 4.71753637 70.61504634 4.42749023 67.13671875 C4.32746201 65.9544873 4.22743378 64.77225586 4.12437439 63.55419922 C3.96806297 61.64018311 3.96806297 61.64018311 3.80859375 59.6875 C3.69807098 58.35431705 3.58739647 57.02114667 3.47657776 55.68798828 C3.24489147 52.8906437 3.01577813 50.0931024 2.78833008 47.29541016 C2.49919008 43.74264285 2.20264499 40.19053972 1.90394497 36.63856506 C1.67312388 33.88128511 1.446926 31.12363945 1.22197151 28.36587524 C1.06306384 26.42947131 0.89993244 24.49341545 0.73667908 22.55737305 C0.63980301 21.34992432 0.54292694 20.14247559 0.44311523 18.8984375 C0.35730698 17.85349121 0.27149872 16.80854492 0.18309021 15.73193359 C-0.07388986 10.49390059 0 5.24433299 0 0 Z " fill="#FBD633" transform="translate(346,256)"/>
<path d="M0 0 C1.1653125 0.00515625 2.330625 0.0103125 3.53125 0.015625 C4.6965625 0.01046875 5.861875 0.0053125 7.0625 0 C10.03125 0.265625 10.03125 0.265625 12.03125 2.265625 C12.296875 5.234375 12.296875 5.234375 12.28125 8.765625 C12.28640625 9.9309375 12.2915625 11.09625 12.296875 12.296875 C12.03125 15.265625 12.03125 15.265625 10.03125 17.265625 C7.0625 17.53125 7.0625 17.53125 3.53125 17.515625 C2.3659375 17.52078125 1.200625 17.5259375 0 17.53125 C-2.96875 17.265625 -2.96875 17.265625 -4.96875 15.265625 C-5.234375 12.296875 -5.234375 12.296875 -5.21875 8.765625 C-5.22390625 7.6003125 -5.2290625 6.435 -5.234375 5.234375 C-4.86877441 1.1482508 -4.0861242 0.36560059 0 0 Z " fill="#F7D332" transform="translate(358.96875,383.734375)"/>
</svg>
