<svg xmlns="http://www.w3.org/2000/svg"  viewBox="0 0 512 512" width="64px" height="64px"><path d="M 204.81836 24 L 193.5332 96 L 225.28711 96 L 236.57227 24 L 204.81836 24 z M 252.81836 24 L 241.5332 96 L 248 96 L 248 172.34766 A 87.614 87.614 0 0 0 207.58984 140.81055 L 154.87109 120.5332 L 149.12891 135.4668 L 201.8457 155.74219 A 72.431 72.431 0 0 1 248 222.94336 L 248 400 L 245.76562 400 L 240 417.30078 L 240 472 L 192 472 L 192 488 L 320 488 L 320 472 L 272 472 L 272 417.30078 L 266.23438 400 L 264 400 L 264 222.94336 A 72.431 72.431 0 0 1 310.1543 155.74414 L 362.87109 135.46875 L 357.12891 120.5332 L 304.41016 140.81055 A 87.614 87.614 0 0 0 264 172.34766 L 264 96 L 273.28711 96 L 284.57227 24 L 252.81836 24 z M 300.81836 24 L 289.5332 96 L 321.28711 96 L 332.57227 24 L 300.81836 24 z M 464.67969 80.005859 A 11.995 11.995 0 0 0 460.30664 80.728516 L 377.61328 110.82812 A 12.014 12.014 0 0 0 370.44141 126.20898 L 371.81055 129.9668 L 477.05469 91.660156 L 475.6875 87.900391 A 11.995 11.995 0 0 0 464.67969 80.005859 z M 48.171875 80.021484 A 12.013 12.013 0 0 0 36.3125 87.900391 L 34.945312 91.660156 L 140.18945 129.9668 L 141.55859 126.20703 A 12.014 12.014 0 0 0 134.38672 110.82617 L 51.693359 80.726562 A 12.013 12.013 0 0 0 48.171875 80.021484 z M 40.027344 110.53711 L 42.851562 117.59766 A 41.8 41.8 0 0 0 81.851562 143.99805 L 123.05078 143.99805 L 124.42773 141.25586 L 40.027344 110.53711 z M 471.96875 110.53906 L 387.56836 141.25781 L 388.94336 144 L 430.14453 144 A 41.8 41.8 0 0 0 469.14453 117.59961 L 471.96875 110.53906 z M 454.85742 179.87891 L 441.13867 188.11133 L 465.14062 228.11133 L 478.85938 219.87891 L 454.85742 179.87891 z M 57.140625 179.88477 L 33.140625 219.88477 L 46.859375 228.11719 L 70.861328 188.11719 L 57.140625 179.88477 z M 376.50781 181.1875 L 352.50781 245.1875 L 367.48828 250.80664 L 391.48828 186.80664 L 376.50781 181.1875 z M 135.49023 181.19141 L 120.50977 186.80859 L 144.50977 250.80859 L 159.49023 245.19141 L 135.49023 181.19141 z M 248 424 L 264 424 L 264 440 L 248 440 L 248 424 z"/></svg>