<svg xmlns="http://www.w3.org/2000/svg"  viewBox="0 0 48 48" width="48px" height="48px"><path fill="#546e7a" d="M41,26v-0.714L45,22c-2.5-3-6-3-6-3v5c-3.189,1.086-5.568,2.798-7.077,4.136	C30.653,29.263,26,33.5,26,39c0,3,2,5,5,5c5,0,7.538,0,9,0c4,0,6-2.212,6-5C46,34.866,41,31.511,41,26z"/><path fill="#90a4ae" d="M40.999,26c-0.15,0-0.303-0.034-0.446-0.105l-2-1c-0.494-0.247-0.694-0.848-0.447-1.342	c0.248-0.494,0.847-0.694,1.342-0.447l2,1c0.494,0.247,0.694,0.848,0.447,1.342C41.719,25.798,41.366,26,40.999,26z"/><path fill="#827717" d="M23.99,12.86c-0.184-0.109-1.802-1.117-1.976-2.926c-0.121-1.261,0.491-2.5,1.821-3.682	c0.564-0.502,1.225-1.254,1.159-1.987c-0.061-0.685-0.75-1.25-1.011-1.409L25.01,1.14c0.184,0.109,1.802,1.117,1.976,2.926	c0.121,1.261-0.491,2.5-1.821,3.682c-0.565,0.502-1.226,1.254-1.16,1.986c0.061,0.685,0.75,1.25,1.011,1.409L23.99,12.86z"/><path fill="#827717" d="M30.99,13.86c-0.184-0.109-1.802-1.117-1.976-2.926c-0.121-1.261,0.491-2.5,1.821-3.682	c0.564-0.502,1.225-1.254,1.159-1.987c-0.061-0.685-0.75-1.25-1.011-1.409L32.01,2.14c0.184,0.109,1.802,1.117,1.976,2.926	c0.121,1.261-0.491,2.5-1.821,3.682c-0.564,0.502-1.225,1.254-1.159,1.987c0.061,0.685,0.75,1.25,1.011,1.409L30.99,13.86z"/><path fill="#827717" d="M16.99,13.86c-0.184-0.109-1.802-1.117-1.976-2.926c-0.121-1.261,0.491-2.5,1.821-3.682	c0.564-0.502,1.225-1.254,1.159-1.987c-0.061-0.685-0.75-1.25-1.011-1.409L18.01,2.14c0.184,0.109,1.802,1.117,1.976,2.926	c0.121,1.261-0.491,2.5-1.821,3.682c-0.564,0.502-1.225,1.254-1.159,1.987c0.061,0.685,0.75,1.25,1.011,1.409L16.99,13.86z"/><path fill="#546e7a" d="M21.875,30C21.845,29.958,12,25.75,12,23.125V19c0,0-3.5,0-6,3c0,0,2,1.625,3.5,2.875	c0.48,0.4,0.5,1,0.5,1c0,5.962-8,7.463-8,13.424C2,41.949,3.923,44,7.769,44C7.769,44,21,44,23,44c3,0,6-2,6-6	C29,33,21.875,30,21.875,30z"/><path fill="#90a4ae" d="M25,21v-6c-4,0.5-6,2.5-6,2.5l4,4.5c0,2.991-4.712,6.28-7.4,8.983c-3.733,3.754-5.6,6.57-5.6,10.324	C10,42.29,10.933,46,15.6,46c1.685,0,13.18,0,15.867,0C35.2,46,38,44.123,38,40.369C38,27.229,25,21,25,21z"/><path fill="#90a4ae" d="M10.001,26c-0.367,0-0.72-0.202-0.896-0.553c-0.247-0.494-0.047-1.095,0.447-1.342l2-1	c0.494-0.247,1.094-0.047,1.342,0.447c0.247,0.494,0.047,1.095-0.447,1.342l-2,1C10.304,25.966,10.151,26,10.001,26z"/><path fill="#b0bec5" d="M23.001,23c-0.367,0-0.72-0.202-0.896-0.553c-0.247-0.494-0.047-1.095,0.447-1.342l2-1	c0.494-0.247,1.094-0.047,1.342,0.447c0.247,0.494,0.047,1.095-0.447,1.342l-2,1C23.304,22.966,23.151,23,23.001,23z"/></svg>