<svg xmlns="http://www.w3.org/2000/svg"  viewBox="0 0 50 50" width="50px" height="50px"><path d="M 25.4375 -0.005859375 A 1.0001 1.0001 0 0 0 24.990234 1.859375 C 24.990234 1.859375 25.605168 2.2691971 25.865234 2.8085938 C 25.995267 3.078292 26.0506 3.3332512 25.955078 3.7011719 C 25.859558 4.0690926 25.576596 4.5935895 24.835938 5.2519531 C 23.889097 6.0935895 23.32831 6.9440926 23.107422 7.7949219 C 22.886534 8.6457512 23.042142 9.4532919 23.333984 10.058594 C 23.917668 11.269197 24.990234 11.859375 24.990234 11.859375 A 1.0001 1.0001 0 1 0 26.009766 10.140625 C 26.009766 10.140625 25.394832 9.730803 25.134766 9.1914062 C 25.004737 8.921708 24.949404 8.6667488 25.044922 8.2988281 C 25.14044 7.9309074 25.423404 7.4064105 26.164062 6.7480469 C 27.110903 5.9064105 27.67169 5.0559074 27.892578 4.2050781 C 28.113466 3.3542488 27.957858 2.546708 27.666016 1.9414062 C 27.082332 0.73080296 26.009766 0.140625 26.009766 0.140625 A 1.0001 1.0001 0 0 0 25.4375 -0.005859375 z M 17.4375 0.99414062 A 1.0001 1.0001 0 0 0 16.990234 2.859375 C 16.990234 2.859375 17.605168 3.2691971 17.865234 3.8085938 C 17.995267 4.078292 18.0506 4.3332512 17.955078 4.7011719 C 17.859558 5.0690926 17.576597 5.5935895 16.835938 6.2519531 C 15.889097 7.0935895 15.32831 7.9440926 15.107422 8.7949219 C 14.886534 9.6457512 15.042142 10.453292 15.333984 11.058594 C 15.917668 12.269197 16.990234 12.859375 16.990234 12.859375 A 1.0001 1.0001 0 1 0 18.009766 11.140625 C 18.009766 11.140625 17.394832 10.730803 17.134766 10.191406 C 17.004737 9.9217081 16.949404 9.6667488 17.044922 9.2988281 C 17.14044 8.9309074 17.423403 8.4064105 18.164062 7.7480469 C 19.110903 6.9064105 19.67169 6.0559074 19.892578 5.2050781 C 20.113466 4.3542488 19.957858 3.5467079 19.666016 2.9414062 C 19.082332 1.730803 18.009766 1.140625 18.009766 1.140625 A 1.0001 1.0001 0 0 0 17.4375 0.99414062 z M 33.4375 0.99414062 A 1.0001 1.0001 0 0 0 32.990234 2.859375 C 32.990234 2.859375 33.605168 3.2691971 33.865234 3.8085938 C 33.995267 4.078292 34.0506 4.3332512 33.955078 4.7011719 C 33.859558 5.0690926 33.576597 5.5935895 32.835938 6.2519531 C 31.889097 7.0935895 31.32831 7.9440926 31.107422 8.7949219 C 30.886534 9.6457512 31.042142 10.453292 31.333984 11.058594 C 31.917668 12.269197 32.990234 12.859375 32.990234 12.859375 A 1.0001 1.0001 0 1 0 34.009766 11.140625 C 34.009766 11.140625 33.394832 10.730803 33.134766 10.191406 C 33.004737 9.9217081 32.949404 9.6667488 33.044922 9.2988281 C 33.14044 8.9309074 33.423403 8.4064105 34.164062 7.7480469 C 35.110903 6.9064105 35.67169 6.0559074 35.892578 5.2050781 C 36.113466 4.3542488 35.957858 3.5467079 35.666016 2.9414062 C 35.082332 1.730803 34.009766 1.140625 34.009766 1.140625 A 1.0001 1.0001 0 0 0 33.4375 0.99414062 z M 23.988281 15 A 1.0001 1.0001 0 0 0 23.605469 15.080078 L 16.605469 18.080078 A 1.0001 1.0001 0 0 0 16.292969 19.707031 L 19.96875 23.382812 C 19.892882 24.615915 19.461723 26.02826 18.755859 27.458984 C 16.534069 25.712808 14.103565 25.206536 12.867188 25.0625 L 11.978516 20.796875 A 1.0001 1.0001 0 0 0 10.964844 20 A 1.0001 1.0001 0 0 0 10.503906 20.130859 L 3.5039062 24.130859 A 1.0001 1.0001 0 0 0 3.3691406 25.775391 L 6.96875 28.705078 C 6.81067 31.155228 5.4106807 32.704556 3.7617188 34.507812 C 2.0117188 36.421563 -2.9605947e-16 38.634984 0 42.111328 C 0 43.731225 0.61814928 45.267501 1.8398438 46.339844 C 3.0615382 47.412186 4.82225 48 7 48 L 10.771484 48 C 11.86223 49.112106 13.584689 50 16 50 L 33 50 C 35.166667 50 37.146453 49.464088 38.625 48.28125 C 38.734522 48.193632 38.834494 48.094814 38.9375 48 L 44 48 C 46.184333 48 47.798743 47.352435 48.769531 46.185547 C 49.74032 45.018659 50 43.51356 50 42 C 50 39.449348 48.369355 36.853028 46.876953 34.109375 C 45.432244 31.453402 44.137317 28.731293 44.052734 26.388672 L 46.810547 22.587891 A 1.0001 1.0001 0 0 0 46.275391 21.039062 L 39.275391 19.039062 A 1.0001 1.0001 0 0 0 38.978516 19 A 1.0001 1.0001 0 0 0 38 20 L 38 24.208984 C 35.637509 24.779542 34.161421 25.575121 33.287109 26.259766 C 30.011971 23.035723 26.861462 21.191554 25.871094 20.648438 L 24.984375 15.818359 A 1.0001 1.0001 0 0 0 23.988281 15 z M 23.242188 17.414062 L 23.845703 20.691406 L 21.226562 21.8125 L 18.751953 19.337891 L 23.242188 17.414062 z M 40 21.326172 L 44.351562 22.568359 L 42.597656 24.988281 L 40 24.246094 L 40 21.326172 z M 24.896484 22.417969 C 26.008747 23.018414 39 30.271177 39 43 C 39 44.421248 38.597117 45.443534 37.900391 46.216797 A 1.0001 1.0001 0 0 0 37.699219 46.431641 C 37.595997 46.531409 37.488864 46.627658 37.375 46.71875 C 36.353547 47.535912 34.833333 48 33 48 L 16 48 C 13.929734 48 12.801603 47.300084 12.082031 46.476562 A 1.0001 1.0001 0 0 0 11.898438 46.253906 C 11.202961 45.34991 11 44.203465 11 44 C 11 40.333333 12.765957 37.648106 16.707031 33.707031 C 19.54429 30.869773 21.635468 27.142236 21.898438 23.703125 L 24.896484 22.417969 z M 10.302734 22.550781 L 10.912109 25.484375 L 8.1054688 27.052734 L 5.7617188 25.146484 L 10.302734 22.550781 z M 38.974609 26.03125 L 42.169922 26.945312 C 42.415493 29.776011 43.741995 32.534643 45.119141 35.066406 C 46.628239 37.840753 48 40.417652 48 42 C 48 43.27444 47.75968 44.270138 47.230469 44.90625 C 46.701257 45.542362 45.815667 46 44 46 L 40.382812 46 C 40.780343 45.118058 41 44.108423 41 43 C 41 36.569477 38.02572 31.445251 34.677734 27.712891 C 35.38705 27.192954 36.684672 26.516599 38.974609 26.03125 z M 12.271484 27.017578 C 12.812294 27.041369 15.420008 27.244238 17.753906 29.214844 C 17.048694 30.308847 16.219794 31.366143 15.292969 32.292969 C 11.234043 36.351894 9 39.666667 9 44 C 9 44.516364 9.1382453 45.227327 9.4648438 46 L 7 46 C 5.17775 46 3.9384618 45.521048 3.1601562 44.837891 C 2.3818508 44.154733 2 43.247432 2 42.111328 C 2 39.387672 3.4882813 37.771172 5.2382812 35.857422 C 6.8809528 34.061043 8.7314794 31.988105 8.9550781 28.867188 L 12.271484 27.017578 z"/></svg>